<?xml version="1.0" encoding="UTF-8"?>
<!DOCTYPE svg PUBLIC "-//W3C//DTD SVG 1.1//EN" "http://www.w3.org/Graphics/SVG/1.1/DTD/svg11.dtd">
<svg xmlns="http://www.w3.org/2000/svg" version="1.1" width="208px" height="208px" style="shape-rendering:geometricPrecision; text-rendering:geometricPrecision; image-rendering:optimizeQuality; fill-rule:evenodd; clip-rule:evenodd" xmlns:xlink="http://www.w3.org/1999/xlink">
<g><path style="opacity:0.999" fill="#00005c" d="M 207.5,32.5 C 207.5,80.1667 207.5,127.833 207.5,175.5C 203.843,189.925 194.843,199.425 180.5,204C 129.167,204.667 77.8333,204.667 26.5,204C 11.8793,199.225 2.87926,189.392 -0.5,174.5C -0.5,127.167 -0.5,79.8333 -0.5,32.5C 3.65237,16.8485 13.6524,7.01512 29.5,3C 78.8333,2.33333 128.167,2.33333 177.5,3C 193.348,7.01512 203.348,16.8485 207.5,32.5 Z"/></g>
<g><path style="opacity:1" fill="#9898fc" d="M 54.5,54.5 C 62.7524,54.1842 70.919,54.5175 79,55.5C 90.2069,85.2889 100.707,115.289 110.5,145.5C 103.8,145.83 97.1335,145.497 90.5,144.5C 88.1667,137.833 85.8333,131.167 83.5,124.5C 72.5,123.167 61.5,123.167 50.5,124.5C 48.461,131.451 46.1277,138.284 43.5,145C 37.5092,145.499 31.5092,145.666 25.5,145.5C 34.1595,118.355 43.3261,91.3554 53,64.5C 54.0429,61.2432 54.5429,57.9099 54.5,54.5 Z"/></g>
<g><path style="opacity:1" fill="#050460" d="M 66.5,71.5 C 70.7351,82.8776 74.4017,94.5443 77.5,106.5C 70.5,106.5 63.5,106.5 56.5,106.5C 59.4276,94.7171 62.761,83.0504 66.5,71.5 Z"/></g>
<g><path style="opacity:1" fill="#9797fb" d="M 139.5,75.5 C 167.599,74.1006 180.099,87.434 177,115.5C 162.912,116.49 148.745,116.824 134.5,116.5C 135.197,123.383 138.864,127.883 145.5,130C 154.253,130.809 162.919,130.309 171.5,128.5C 171.805,133.762 171.471,138.928 170.5,144C 156.156,149.311 142.156,148.644 128.5,142C 116.054,130.4 111.887,116.233 116,99.5C 120.044,87.624 127.877,79.624 139.5,75.5 Z"/></g>
<g><path style="opacity:1" fill="#03035f" d="M 142.5,90.5 C 147.08,90.1134 151.414,90.9468 155.5,93C 158.246,95.6458 159.413,98.8124 159,102.5C 150.919,103.482 142.752,103.816 134.5,103.5C 134.891,97.7088 137.558,93.3755 142.5,90.5 Z"/></g>
</svg>
