<?xml version="1.0" encoding="UTF-8"?>
<!DOCTYPE svg PUBLIC "-//W3C//DTD SVG 1.1//EN" "http://www.w3.org/Graphics/SVG/1.1/DTD/svg11.dtd">
<svg xmlns="http://www.w3.org/2000/svg" version="1.1" width="208px" height="208px" style="shape-rendering:geometricPrecision; text-rendering:geometricPrecision; image-rendering:optimizeQuality; fill-rule:evenodd; clip-rule:evenodd" xmlns:xlink="http://www.w3.org/1999/xlink">
<g><path style="opacity:0.986" fill="#ff7600" d="M 104.5,19.5 C 109.702,18.7562 114.369,19.9228 118.5,23C 139.986,39.9088 161.653,56.5755 183.5,73C 207.834,96.6748 212.001,123.508 196,153.5C 176.508,179.338 150.675,189.505 118.5,184C 85.4774,175.981 66.9774,155.148 63,121.5C 49.1667,132.667 35.3333,143.833 21.5,155C 8.26115,159.638 1.76115,155.138 2,141.5C 3.38408,137.242 5.88408,133.742 9.5,131C 33.3464,113.243 57.013,95.2427 80.5,77C 65.8333,76.6667 51.1667,76.3333 36.5,76C 28.5644,70.1807 28.5644,64.1807 36.5,58C 38.087,57.1376 39.7536,56.4709 41.5,56C 69.1667,55.6667 96.8333,55.3333 124.5,55C 115.575,47.9531 106.742,40.7865 98,33.5C 96.627,31.3046 96.2937,28.9712 97,26.5C 98.7424,23.2543 101.242,20.921 104.5,19.5 Z"/></g>
<g><path style="opacity:1" fill="#fdfcfb" d="M 124.5,76.5 C 142.073,73.7184 156.907,78.7184 169,91.5C 182.275,111.793 179.775,129.96 161.5,146C 138.348,159.695 117.514,156.862 99,137.5C 86.0543,115.118 90.221,96.6178 111.5,82C 115.893,80.0441 120.226,78.2108 124.5,76.5 Z"/></g>
<g><path style="opacity:1" fill="#045589" d="M 127.5,88.5 C 142.667,86.6657 153.834,92.3324 161,105.5C 163.6,125.96 154.6,136.96 134,138.5C 114.989,136.162 106.323,125.495 108,106.5C 112.163,97.8318 118.663,91.8318 127.5,88.5 Z"/></g>
</svg>
