<?xml version="1.0" encoding="UTF-8"?>
<!DOCTYPE svg PUBLIC "-//W3C//DTD SVG 1.1//EN" "http://www.w3.org/Graphics/SVG/1.1/DTD/svg11.dtd">
<svg xmlns="http://www.w3.org/2000/svg" version="1.1" width="125px" height="125px" style="shape-rendering:geometricPrecision; text-rendering:geometricPrecision; image-rendering:optimizeQuality; fill-rule:evenodd; clip-rule:evenodd" xmlns:xlink="http://www.w3.org/1999/xlink">
<g><path style="opacity:0.928" fill="#fefffe" d="M 61.5,11.5 C 64.6492,11.2114 67.6492,11.7114 70.5,13C 81.5,21.3333 92.5,29.6667 103.5,38C 126.238,54.6994 129.572,74.5327 113.5,97.5C 96.3144,113.183 77.3144,115.683 56.5,105C 45.0505,97.6079 38.5505,87.1079 37,73.5C 28.7379,81.0983 19.9046,87.9316 10.5,94C 2.78853,94.6216 -0.378137,91.1216 1,83.5C 1.78451,81.714 2.95118,80.214 4.5,79C 18.5,68.3333 32.5,57.6667 46.5,47C 38.5,46.6667 30.5,46.3333 22.5,46C 16.712,43.4703 16.0453,39.9703 20.5,35.5C 21.9122,34.1936 23.5789,33.3603 25.5,33C 41.5,32.6667 57.5,32.3333 73.5,32C 68.0589,28.1932 62.8922,24.0265 58,19.5C 57.2793,15.9463 58.4459,13.2796 61.5,11.5 Z M 73.5,46.5 C 91.76,43.6204 102.76,51.1204 106.5,69C 103.979,83.455 95.3119,91.2883 80.5,92.5C 58.6416,89.1028 51.4749,77.1028 59,56.5C 62.9775,51.7741 67.8108,48.4408 73.5,46.5 Z"/></g>
<g><path style="opacity:0.929" fill="#fefffe" d="M 76.5,52.5 C 93.6587,52.458 99.8253,60.458 95,76.5C 84.9607,86.1184 75.294,85.785 66,75.5C 61.8832,64.3982 65.3832,56.7315 76.5,52.5 Z"/></g>
</svg>
