<?xml version="1.0" encoding="UTF-8"?>
<!DOCTYPE svg PUBLIC "-//W3C//DTD SVG 1.1//EN" "http://www.w3.org/Graphics/SVG/1.1/DTD/svg11.dtd">
<svg xmlns="http://www.w3.org/2000/svg" version="1.1" width="208px" height="208px" style="shape-rendering:geometricPrecision; text-rendering:geometricPrecision; image-rendering:optimizeQuality; fill-rule:evenodd; clip-rule:evenodd" xmlns:xlink="http://www.w3.org/1999/xlink">
<g><path style="opacity:1" fill="#f4f5f9" d="M 129.5,5.5 C 130.398,6.15767 131.398,6.82434 132.5,7.5C 123.318,16.5161 113.984,25.3495 104.5,34C 106.382,34.1981 108.048,34.6981 109.5,35.5C 78.4404,38.2796 52.6071,51.2796 32,74.5C 17.2977,94.453 13.2977,116.453 20,140.5C 22.2571,146.011 24.7571,151.344 27.5,156.5C 30.9023,162.076 34.9023,167.243 39.5,172C 44.8333,176 50.1667,180 55.5,184C 53.0151,183.377 51.0151,184.377 49.5,187C 50.7119,188.107 50.3786,188.607 48.5,188.5C 13.9295,164.678 -1.23716,131.678 3,89.5C 13.5313,38.3025 44.698,9.13585 96.5,2C 107.761,1.11671 118.761,2.28338 129.5,5.5 Z"/></g>
<g><path style="opacity:1" fill="#edf0f9" d="M 129.5,5.5 C 133.553,6.34954 137.553,7.51621 141.5,9C 142.883,10.2708 143.883,11.7708 144.5,13.5C 144.187,16.2469 144.52,18.9135 145.5,21.5C 159.741,27.7427 170.408,37.7427 177.5,51.5C 177.539,53.2239 177.206,53.5573 176.5,52.5C 175.833,51.1667 175.167,49.8333 174.5,48.5C 172.018,44.1843 168.684,40.6843 164.5,38C 157.144,35.5361 149.978,32.7028 143,29.5C 142.162,30.999 141.329,31.3324 140.5,30.5C 141.303,29.5768 141.47,28.5768 141,27.5C 134.056,31.6148 126.556,34.2814 118.5,35.5C 115.607,34.9241 112.607,34.9241 109.5,35.5C 108.048,34.6981 106.382,34.1981 104.5,34C 113.984,25.3495 123.318,16.5161 132.5,7.5C 131.398,6.82434 130.398,6.15767 129.5,5.5 Z"/></g>
<g><path style="opacity:1" fill="#070713" d="M 144.5,13.5 C 167.671,20.6717 183.338,35.6717 191.5,58.5C 188.061,58.2529 184.728,58.5863 181.5,59.5C 181.5,58.8333 181.167,58.5 180.5,58.5C 180.293,55.7594 179.293,53.4261 177.5,51.5C 170.408,37.7427 159.741,27.7427 145.5,21.5C 144.52,18.9135 144.187,16.2469 144.5,13.5 Z"/></g>
<g><path style="opacity:1" fill="#010110" d="M 140.5,30.5 C 139.197,32.1423 137.864,33.8089 136.5,35.5C 134.611,36.604 132.945,37.9373 131.5,39.5C 127.879,41.142 124.546,43.142 121.5,45.5C 119.486,45.3915 117.82,46.0582 116.5,47.5C 111.614,49.4578 106.948,51.7911 102.5,54.5C 99.0516,55.3901 96.0516,57.0568 93.5,59.5C 86.4318,62.692 81.0984,67.692 77.5,74.5C 70.9291,82.5325 68.9291,91.5325 71.5,101.5C 71.5399,104.988 72.2066,108.321 73.5,111.5C 84.3859,133.902 101.719,141.568 125.5,134.5C 130.855,132.494 135.521,129.494 139.5,125.5C 143.312,121.223 146.645,116.557 149.5,111.5C 153.265,105.298 155.932,98.6314 157.5,91.5C 159.07,88.6865 160.403,85.6865 161.5,82.5C 163.086,80.3295 164.42,77.9962 165.5,75.5C 166.833,73.8333 168.167,72.1667 169.5,70.5C 171.573,68.4202 173.907,66.7536 176.5,65.5C 173.893,71.928 172.226,78.5946 171.5,85.5C 168.998,99.434 166.165,113.434 163,127.5C 160.258,134.646 157.258,141.646 154,148.5C 152.629,151.266 150.796,153.599 148.5,155.5C 141.084,158.27 133.417,159.937 125.5,160.5C 118.789,160.713 112.123,160.38 105.5,159.5C 104.081,158.549 102.415,158.216 100.5,158.5C 100.158,157.662 99.4916,157.328 98.5,157.5C 96.8333,156.833 95.1667,156.167 93.5,155.5C 91.8333,154.833 90.1667,154.167 88.5,153.5C 88.1583,152.662 87.4916,152.328 86.5,152.5C 77.0403,147.718 69.0403,141.051 62.5,132.5C 60.5879,130.343 58.9213,128.009 57.5,125.5C 56.7515,123.668 55.7515,122.001 54.5,120.5C 53.3503,117.702 52.017,115.035 50.5,112.5C 49.0901,108.603 48.0901,104.603 47.5,100.5C 47.0371,97.5176 46.7038,94.5176 46.5,91.5C 46.1711,81.4008 46.8377,71.4008 48.5,61.5C 56.5256,54.8149 65.5256,49.6482 75.5,46C 89.7511,41.6549 104.084,38.1549 118.5,35.5C 126.556,34.2814 134.056,31.6148 141,27.5C 141.47,28.5768 141.303,29.5768 140.5,30.5 Z"/></g>
<g><path style="opacity:1" fill="#bbc3ff" d="M 174.5,48.5 C 175.167,49.8333 175.833,51.1667 176.5,52.5C 172.753,51.2676 169.086,49.7676 165.5,48C 157.104,43.1399 148.77,38.3066 140.5,33.5C 141.946,32.3871 143.613,32.2204 145.5,33C 155.274,38.2166 164.94,43.3833 174.5,48.5 Z"/></g>
<g><path style="opacity:1" fill="#d2d9fe" d="M 174.5,48.5 C 164.94,43.3833 155.274,38.2166 145.5,33C 143.613,32.2204 141.946,32.3871 140.5,33.5C 139.206,34.2899 138.039,35.2899 137,36.5C 136.601,36.2716 136.435,35.9382 136.5,35.5C 137.864,33.8089 139.197,32.1423 140.5,30.5C 141.329,31.3324 142.162,30.999 143,29.5C 149.978,32.7028 157.144,35.5361 164.5,38C 168.684,40.6843 172.018,44.1843 174.5,48.5 Z"/></g>
<g><path style="opacity:1" fill="#677bf8" d="M 131.5,39.5 C 131.5,40.1667 131.833,40.5 132.5,40.5C 133.267,41.172 133.934,42.0053 134.5,43C 147.682,50.3765 161.349,56.5432 175.5,61.5C 176.791,61.2627 177.791,61.596 178.5,62.5C 177.833,63.5 177.167,64.5 176.5,65.5C 173.907,66.7536 171.573,68.4202 169.5,70.5C 159.826,65.1597 149.826,59.993 139.5,55C 137.231,53.0979 134.898,51.2646 132.5,49.5C 128.132,48.7614 124.465,47.4281 121.5,45.5C 124.546,43.142 127.879,41.142 131.5,39.5 Z"/></g>
<g><path style="opacity:1" fill="#a1aefd" d="M 140.5,33.5 C 148.77,38.3066 157.104,43.1399 165.5,48C 169.086,49.7676 172.753,51.2676 176.5,52.5C 177.206,53.5573 177.539,53.2239 177.5,51.5C 179.293,53.4261 180.293,55.7594 180.5,58.5C 179.749,59.5735 178.749,59.7401 177.5,59C 167.161,53.3239 156.828,47.6572 146.5,42C 143.647,40.5699 140.647,39.7366 137.5,39.5C 135.344,37.8823 133.677,38.2157 132.5,40.5C 131.833,40.5 131.5,40.1667 131.5,39.5C 132.945,37.9373 134.611,36.604 136.5,35.5C 136.435,35.9382 136.601,36.2716 137,36.5C 138.039,35.2899 139.206,34.2899 140.5,33.5 Z"/></g>
<g><path style="opacity:1" fill="#5469e2" d="M 121.5,45.5 C 124.465,47.4281 128.132,48.7614 132.5,49.5C 134.898,51.2646 137.231,53.0979 139.5,55C 149.826,59.993 159.826,65.1597 169.5,70.5C 168.167,72.1667 166.833,73.8333 165.5,75.5C 164.417,75.5394 163.417,75.8728 162.5,76.5C 146.595,67.7158 130.595,59.2158 114.5,51C 115.305,49.8873 115.972,48.7206 116.5,47.5C 117.82,46.0582 119.486,45.3915 121.5,45.5 Z"/></g>
<g><path style="opacity:1" fill="#7a8cff" d="M 137.5,39.5 C 148.746,46.1939 160.413,52.3606 172.5,58C 174.063,58.7589 175.063,59.9256 175.5,61.5C 161.349,56.5432 147.682,50.3765 134.5,43C 133.934,42.0053 133.267,41.172 132.5,40.5C 133.677,38.2157 135.344,37.8823 137.5,39.5 Z"/></g>
<g><path style="opacity:1" fill="#8e9dfe" d="M 137.5,39.5 C 140.647,39.7366 143.647,40.5699 146.5,42C 156.828,47.6572 167.161,53.3239 177.5,59C 178.749,59.7401 179.749,59.5735 180.5,58.5C 181.167,58.5 181.5,58.8333 181.5,59.5C 180.833,60.8333 179.833,61.8333 178.5,62.5C 177.791,61.596 176.791,61.2627 175.5,61.5C 175.063,59.9256 174.063,58.7589 172.5,58C 160.413,52.3606 148.746,46.1939 137.5,39.5 Z"/></g>
<g><path style="opacity:1" fill="#283cab" d="M 157.5,91.5 C 155.932,98.6314 153.265,105.298 149.5,111.5C 148.417,111.539 147.417,111.873 146.5,112.5C 140.639,109.156 134.639,105.989 128.5,103C 112.542,94.0122 95.875,85.3456 78.5,77C 78.1164,76.0494 77.7831,75.2161 77.5,74.5C 81.0984,67.692 86.4318,62.692 93.5,59.5C 93.4346,59.9382 93.6012,60.2716 94,60.5C 95.0852,59.7069 96.2519,59.0402 97.5,58.5C 110.594,66.2191 123.927,73.7191 137.5,81C 139.952,81.2895 142.285,81.9562 144.5,83C 148.72,86.1133 153.053,88.9466 157.5,91.5 Z"/></g>
<g><path style="opacity:1" fill="#485ed1" d="M 116.5,47.5 C 115.972,48.7206 115.305,49.8873 114.5,51C 130.595,59.2158 146.595,67.7158 162.5,76.5C 163.417,75.8728 164.417,75.5394 165.5,75.5C 164.42,77.9962 163.086,80.3295 161.5,82.5C 160.226,81.8106 160.226,80.9772 161.5,80C 159.965,79.5038 158.465,79.6705 157,80.5C 155.216,79.6909 153.383,79.0243 151.5,78.5C 140.5,72.3333 129.5,66.1667 118.5,60C 113.034,58.4274 107.7,56.594 102.5,54.5C 106.948,51.7911 111.614,49.4578 116.5,47.5 Z"/></g>
<g><path style="opacity:1" fill="#384ebd" d="M 102.5,54.5 C 107.7,56.594 113.034,58.4274 118.5,60C 129.5,66.1667 140.5,72.3333 151.5,78.5C 153.383,79.0243 155.216,79.6909 157,80.5C 158.465,79.6705 159.965,79.5038 161.5,80C 160.226,80.9772 160.226,81.8106 161.5,82.5C 160.403,85.6865 159.07,88.6865 157.5,91.5C 153.053,88.9466 148.72,86.1133 144.5,83C 142.285,81.9562 139.952,81.2895 137.5,81C 123.927,73.7191 110.594,66.2191 97.5,58.5C 96.2519,59.0402 95.0852,59.7069 94,60.5C 93.6012,60.2716 93.4346,59.9382 93.5,59.5C 96.0516,57.0568 99.0516,55.3901 102.5,54.5 Z"/></g>
<g><path style="opacity:1" fill="#dbdde4" d="M 191.5,58.5 C 193.09,58.6282 194.423,59.2949 195.5,60.5C 197.966,64.8983 199.632,69.565 200.5,74.5C 200.66,76.1992 200.494,77.8659 200,79.5C 191.013,88.6538 181.846,97.6538 172.5,106.5C 171.818,105.757 171.151,105.091 170.5,104.5C 172.362,98.0873 172.695,91.754 171.5,85.5C 172.226,78.5946 173.893,71.928 176.5,65.5C 177.167,64.5 177.833,63.5 178.5,62.5C 179.833,61.8333 180.833,60.8333 181.5,59.5C 184.728,58.5863 188.061,58.2529 191.5,58.5 Z"/></g>
<g><path style="opacity:1" fill="#171b3e" d="M 48.5,61.5 C 46.8377,71.4008 46.1711,81.4008 46.5,91.5C 45.6733,86.3491 45.1733,81.0158 45,75.5C 44.7266,77.1012 44.2266,78.6012 43.5,80C 39.8468,80.7733 36.3468,81.9399 33,83.5C 32.6667,83.1667 32.3333,82.8333 32,82.5C 29.6512,86.0721 27.4845,89.0721 25.5,91.5C 30.2609,79.3303 37.9275,69.3303 48.5,61.5 Z"/></g>
<g><path style="opacity:1" fill="#bfc3da" d="M 118.5,35.5 C 104.084,38.1549 89.7511,41.6549 75.5,46C 65.5256,49.6482 56.5256,54.8149 48.5,61.5C 37.9275,69.3303 30.2609,79.3303 25.5,91.5C 23.3952,94.4083 22.3952,97.7417 22.5,101.5C 21.207,102.842 20.3736,104.509 20,106.5C 19.5007,114.512 19.6673,122.512 20.5,130.5C 21.731,137.095 23.731,143.429 26.5,149.5C 27.4706,151.483 28.4706,153.483 29.5,155.5C 28.8333,155.833 28.1667,156.167 27.5,156.5C 24.7571,151.344 22.2571,146.011 20,140.5C 13.2977,116.453 17.2977,94.453 32,74.5C 52.6071,51.2796 78.4404,38.2796 109.5,35.5C 112.607,34.9241 115.607,34.9241 118.5,35.5 Z"/></g>
<g><path style="opacity:0.996" fill="#d2d4d8" d="M 200.5,74.5 C 203.86,83.071 205.193,92.071 204.5,101.5C 203.698,100.048 203.198,98.3817 203,96.5C 202.705,98.9306 201.538,100.764 199.5,102C 200.34,103.666 199.84,103.833 198,102.5C 196.372,104.653 195.039,106.987 194,109.5C 193.667,109.167 193.333,108.833 193,108.5C 191,110.833 189,113.167 187,115.5C 186.667,115.167 186.333,114.833 186,114.5C 183.577,117.249 181.577,120.249 180,123.5C 179.667,122.833 179.333,122.167 179,121.5C 174.605,126.61 170.105,131.61 165.5,136.5C 164.914,136.709 164.414,137.043 164,137.5C 163.722,136.584 163.222,135.918 162.5,135.5C 166.781,125.644 169.448,115.311 170.5,104.5C 171.151,105.091 171.818,105.757 172.5,106.5C 181.846,97.6538 191.013,88.6538 200,79.5C 200.494,77.8659 200.66,76.1992 200.5,74.5 Z"/></g>
<g><path style="opacity:1" fill="#3a50be" d="M 77.5,74.5 C 77.7831,75.2161 78.1164,76.0494 78.5,77C 95.875,85.3456 112.542,94.0122 128.5,103C 134.639,105.989 140.639,109.156 146.5,112.5C 147.417,111.873 148.417,111.539 149.5,111.5C 146.645,116.557 143.312,121.223 139.5,125.5C 118.013,113.915 96.0126,102.415 73.5,91C 72.8742,90.2496 72.3742,89.4162 72,88.5C 71.501,92.8206 71.3343,97.1539 71.5,101.5C 68.9291,91.5325 70.9291,82.5325 77.5,74.5 Z"/></g>
<g><path style="opacity:1" fill="#2f3252" d="M 46.5,91.5 C 46.7038,94.5176 47.0371,97.5176 47.5,100.5C 46.453,98.8494 45.2863,97.1828 44,95.5C 39.3903,97.4786 34.557,98.6453 29.5,99C 26.8673,99.4232 24.7006,100.59 23,102.5C 22.6012,102.272 22.4346,101.938 22.5,101.5C 22.3952,97.7417 23.3952,94.4083 25.5,91.5C 27.4845,89.0721 29.6512,86.0721 32,82.5C 32.3333,82.8333 32.6667,83.1667 33,83.5C 36.3468,81.9399 39.8468,80.7733 43.5,80C 44.2266,78.6012 44.7266,77.1012 45,75.5C 45.1733,81.0158 45.6733,86.3491 46.5,91.5 Z"/></g>
<g><path style="opacity:1" fill="#4a60cc" d="M 139.5,125.5 C 135.521,129.494 130.855,132.494 125.5,134.5C 123.679,133.883 121.679,133.716 119.5,134C 105.5,126.667 91.5,119.333 77.5,112C 76.2068,111.51 74.8734,111.343 73.5,111.5C 72.2066,108.321 71.5399,104.988 71.5,101.5C 71.3343,97.1539 71.501,92.8206 72,88.5C 72.3742,89.4162 72.8742,90.2496 73.5,91C 96.0126,102.415 118.013,113.915 139.5,125.5 Z"/></g>
<g><path style="opacity:1" fill="#e8e9ee" d="M 171.5,85.5 C 172.695,91.754 172.362,98.0873 170.5,104.5C 169.448,115.311 166.781,125.644 162.5,135.5C 157.053,150.232 148.72,163.065 137.5,174C 127.646,182.426 116.312,187.926 103.5,190.5C 92.61,192.053 81.7767,191.72 71,189.5C 70.1667,189.667 69.3333,189.833 68.5,190C 68.8333,190.333 69.1667,190.667 69.5,191C 68.1218,192.713 66.4552,194.047 64.5,195C 65.2524,195.671 65.5858,196.504 65.5,197.5C 59.3504,195.26 53.6837,192.26 48.5,188.5C 50.3786,188.607 50.7119,188.107 49.5,187C 51.0151,184.377 53.0151,183.377 55.5,184C 50.1667,180 44.8333,176 39.5,172C 34.9023,167.243 30.9023,162.076 27.5,156.5C 28.1667,156.167 28.8333,155.833 29.5,155.5C 29.5,156.167 29.8333,156.5 30.5,156.5C 33.406,162.075 37.406,166.742 42.5,170.5C 46.4538,174.812 51.1205,178.145 56.5,180.5C 62.0795,184.585 68.4129,186.919 75.5,187.5C 97.0477,192.134 116.381,187.467 133.5,173.5C 140.001,168.673 145.001,162.673 148.5,155.5C 150.796,153.599 152.629,151.266 154,148.5C 157.258,141.646 160.258,134.646 163,127.5C 166.165,113.434 168.998,99.434 171.5,85.5 Z"/></g>
<g><path style="opacity:1" fill="#494c6a" d="M 47.5,100.5 C 48.0901,104.603 49.0901,108.603 50.5,112.5C 49.234,113.09 47.9007,113.59 46.5,114C 46.9574,114.414 47.2907,114.914 47.5,115.5C 46.2371,117.029 45.2371,118.695 44.5,120.5C 43.0382,122.255 41.2049,123.588 39,124.5C 35.5049,124.284 32.1716,123.617 29,122.5C 28.6827,124.301 28.016,124.634 27,123.5C 25.5589,124.26 24.0589,124.926 22.5,125.5C 21.8302,127.291 21.1635,128.958 20.5,130.5C 19.6673,122.512 19.5007,114.512 20,106.5C 20.3736,104.509 21.207,102.842 22.5,101.5C 22.4346,101.938 22.6012,102.272 23,102.5C 24.7006,100.59 26.8673,99.4232 29.5,99C 34.557,98.6453 39.3903,97.4786 44,95.5C 45.2863,97.1828 46.453,98.8494 47.5,100.5 Z"/></g>
<g><path style="opacity:1" fill="#caccce" d="M 204.5,101.5 C 205.339,112.255 204.005,122.589 200.5,132.5C 199.361,129.838 199.194,127.171 200,124.5C 175.253,148.582 150.587,172.582 126,196.5C 125.727,198.101 125.227,199.601 124.5,201C 125.793,201.49 127.127,201.657 128.5,201.5C 123.127,203.452 117.46,204.452 111.5,204.5C 106.456,204.827 101.456,204.494 96.5,203.5C 99.1456,201.002 101.979,198.002 105,194.5C 105.333,194.833 105.667,195.167 106,195.5C 106.833,194 108,192.833 109.5,192C 107.292,191.809 105.292,191.309 103.5,190.5C 116.312,187.926 127.646,182.426 137.5,174C 148.72,163.065 157.053,150.232 162.5,135.5C 163.222,135.918 163.722,136.584 164,137.5C 164.414,137.043 164.914,136.709 165.5,136.5C 170.105,131.61 174.605,126.61 179,121.5C 179.333,122.167 179.667,122.833 180,123.5C 181.577,120.249 183.577,117.249 186,114.5C 186.333,114.833 186.667,115.167 187,115.5C 189,113.167 191,110.833 193,108.5C 193.333,108.833 193.667,109.167 194,109.5C 195.039,106.987 196.372,104.653 198,102.5C 199.84,103.833 200.34,103.666 199.5,102C 201.538,100.764 202.705,98.9306 203,96.5C 203.198,98.3817 203.698,100.048 204.5,101.5 Z"/></g>
<g><path style="opacity:1" fill="#566ed8" d="M 73.5,111.5 C 74.8734,111.343 76.2068,111.51 77.5,112C 91.5,119.333 105.5,126.667 119.5,134C 121.679,133.716 123.679,133.883 125.5,134.5C 101.719,141.568 84.3859,133.902 73.5,111.5 Z"/></g>
<g><path style="opacity:1" fill="#525b90" d="M 50.5,112.5 C 52.017,115.035 53.3503,117.702 54.5,120.5C 53.7321,121.263 53.2321,122.263 53,123.5C 51.3335,122.66 51.1669,123.16 52.5,125C 51.0137,127.289 50.0137,129.789 49.5,132.5C 51.5721,138.666 52.9055,145 53.5,151.5C 50.5153,149.513 48.5153,146.846 47.5,143.5C 46.9888,140.307 46.3222,137.141 45.5,134C 45.5589,132.564 45.8922,131.231 46.5,130C 43.8705,126.801 44.2039,123.801 47.5,121C 46.552,120.517 45.552,120.351 44.5,120.5C 45.2371,118.695 46.2371,117.029 47.5,115.5C 47.2907,114.914 46.9574,114.414 46.5,114C 47.9007,113.59 49.234,113.09 50.5,112.5 Z"/></g>
<g><path style="opacity:1" fill="#c3c4c5" d="M 200.5,132.5 C 188.888,168.445 164.888,191.445 128.5,201.5C 127.127,201.657 125.793,201.49 124.5,201C 125.227,199.601 125.727,198.101 126,196.5C 150.587,172.582 175.253,148.582 200,124.5C 199.194,127.171 199.361,129.838 200.5,132.5 Z"/></g>
<g><path style="opacity:1" fill="#616582" d="M 44.5,120.5 C 45.552,120.351 46.552,120.517 47.5,121C 44.2039,123.801 43.8705,126.801 46.5,130C 45.8922,131.231 45.5589,132.564 45.5,134C 46.3222,137.141 46.9888,140.307 47.5,143.5C 46.6618,143.842 46.3284,144.508 46.5,145.5C 45.3734,144.878 44.3734,144.045 43.5,143C 44.7816,140.21 43.9483,138.043 41,136.5C 40.1667,137.333 39.3333,138.167 38.5,139C 34.6986,140.694 30.6986,141.861 26.5,142.5C 26.3067,144.974 26.3067,147.307 26.5,149.5C 23.731,143.429 21.731,137.095 20.5,130.5C 21.1635,128.958 21.8302,127.291 22.5,125.5C 24.0589,124.926 25.5589,124.26 27,123.5C 28.016,124.634 28.6827,124.301 29,122.5C 32.1716,123.617 35.5049,124.284 39,124.5C 41.2049,123.588 43.0382,122.255 44.5,120.5 Z"/></g>
<g><path style="opacity:1" fill="#3c53c3" d="M 62.5,132.5 C 69.0403,141.051 77.0403,147.718 86.5,152.5C 84.2598,153.687 81.7598,154.354 79,154.5C 74.6611,153.411 70.4944,151.911 66.5,150C 64.4484,146.728 62.7817,143.228 61.5,139.5C 61.436,137.136 61.7693,134.803 62.5,132.5 Z"/></g>
<g><path style="opacity:1" fill="#717490" d="M 46.5,145.5 C 46.2623,148.408 47.2623,150.742 49.5,152.5C 49.1373,153.183 48.8039,153.85 48.5,154.5C 42.7801,149.327 36.1134,148.16 28.5,151C 29.5,152.667 30.5,154.333 31.5,156C 31.2716,156.399 30.9382,156.565 30.5,156.5C 29.8333,156.5 29.5,156.167 29.5,155.5C 28.4706,153.483 27.4706,151.483 26.5,149.5C 26.3067,147.307 26.3067,144.974 26.5,142.5C 30.6986,141.861 34.6986,140.694 38.5,139C 39.3333,138.167 40.1667,137.333 41,136.5C 43.9483,138.043 44.7816,140.21 43.5,143C 44.3734,144.045 45.3734,144.878 46.5,145.5 Z"/></g>
<g><path style="opacity:1" fill="#4357b9" d="M 57.5,125.5 C 58.9213,128.009 60.5879,130.343 62.5,132.5C 61.7693,134.803 61.436,137.136 61.5,139.5C 62.7817,143.228 64.4484,146.728 66.5,150C 70.4944,151.911 74.6611,153.411 79,154.5C 81.7598,154.354 84.2598,153.687 86.5,152.5C 87.4916,152.328 88.1583,152.662 88.5,153.5C 76.9134,157.455 67.0801,154.788 59,145.5C 58.8665,142.475 57.8665,139.808 56,137.5C 55.502,134.518 55.3354,131.518 55.5,128.5C 55.427,126.973 56.0937,125.973 57.5,125.5 Z"/></g>
<g><path style="opacity:1" fill="#8587a0" d="M 48.5,154.5 C 49.1667,154.5 49.5,154.833 49.5,155.5C 49.3893,156.117 49.056,156.617 48.5,157C 50.259,158.008 51.4257,159.508 52,161.5C 56.3334,163.703 60.1668,166.369 63.5,169.5C 61.1727,169.753 59.1727,169.086 57.5,167.5C 56.707,168.355 57.0403,169.189 58.5,170C 58,170.167 57.5,170.333 57,170.5C 53.7614,169.357 50.4281,168.69 47,168.5C 45.0145,168.569 43.5145,169.235 42.5,170.5C 37.406,166.742 33.406,162.075 30.5,156.5C 30.9382,156.565 31.2716,156.399 31.5,156C 30.5,154.333 29.5,152.667 28.5,151C 36.1134,148.16 42.7801,149.327 48.5,154.5 Z"/></g>
<g><path style="opacity:1" fill="#5466bc" d="M 55.5,128.5 C 55.3354,131.518 55.502,134.518 56,137.5C 57.8665,139.808 58.8665,142.475 59,145.5C 67.0801,154.788 76.9134,157.455 88.5,153.5C 90.1667,154.167 91.8333,154.833 93.5,155.5C 88.9479,158.598 83.7812,159.931 78,159.5C 66.7695,160.218 59.4361,155.218 56,144.5C 54.7305,140.859 53.5639,137.192 52.5,133.5C 53.6963,131.855 54.6963,130.189 55.5,128.5 Z"/></g>
<g><path style="opacity:1" fill="#6270b5" d="M 54.5,120.5 C 55.7515,122.001 56.7515,123.668 57.5,125.5C 56.0937,125.973 55.427,126.973 55.5,128.5C 54.6963,130.189 53.6963,131.855 52.5,133.5C 53.5639,137.192 54.7305,140.859 56,144.5C 59.4361,155.218 66.7695,160.218 78,159.5C 83.7812,159.931 88.9479,158.598 93.5,155.5C 95.1667,156.167 96.8333,156.833 98.5,157.5C 97.9759,160.188 96.3092,161.688 93.5,162C 83.8188,163.931 74.1522,163.931 64.5,162C 60.4176,158.955 56.7509,155.455 53.5,151.5C 52.9055,145 51.5721,138.666 49.5,132.5C 50.0137,129.789 51.0137,127.289 52.5,125C 51.1669,123.16 51.3335,122.66 53,123.5C 53.2321,122.263 53.7321,121.263 54.5,120.5 Z"/></g>
<g><path style="opacity:1" fill="#858bb3" d="M 49.5,155.5 C 51.6968,156.845 54.0302,158.011 56.5,159C 57.636,160.53 58.636,161.863 59.5,163C 70.1459,169.234 81.1459,169.901 92.5,165C 94.5,164 96.5,163 98.5,162C 100.241,160.917 100.907,159.75 100.5,158.5C 102.415,158.216 104.081,158.549 105.5,159.5C 104.448,159.351 103.448,159.517 102.5,160C 103.833,160.667 103.833,161.333 102.5,162C 91.5247,170.16 79.1913,173.16 65.5,171C 64.5842,170.722 63.9175,170.222 63.5,169.5C 60.1668,166.369 56.3334,163.703 52,161.5C 51.4257,159.508 50.259,158.008 48.5,157C 49.056,156.617 49.3893,156.117 49.5,155.5 Z"/></g>
<g><path style="opacity:1" fill="#757fb2" d="M 47.5,143.5 C 48.5153,146.846 50.5153,149.513 53.5,151.5C 56.7509,155.455 60.4176,158.955 64.5,162C 74.1522,163.931 83.8188,163.931 93.5,162C 96.3092,161.688 97.9759,160.188 98.5,157.5C 99.4916,157.328 100.158,157.662 100.5,158.5C 100.907,159.75 100.241,160.917 98.5,162C 96.5,163 94.5,164 92.5,165C 81.1459,169.901 70.1459,169.234 59.5,163C 58.636,161.863 57.636,160.53 56.5,159C 54.0302,158.011 51.6968,156.845 49.5,155.5C 49.5,154.833 49.1667,154.5 48.5,154.5C 48.8039,153.85 49.1373,153.183 49.5,152.5C 47.2623,150.742 46.2623,148.408 46.5,145.5C 46.3284,144.508 46.6618,143.842 47.5,143.5 Z"/></g>
<g><path style="opacity:1" fill="#afb0ba" d="M 148.5,155.5 C 145.001,162.673 140.001,168.673 133.5,173.5C 133.062,173.565 132.728,173.399 132.5,173C 133.5,172 134.5,171 135.5,170C 134.833,169.833 134.167,169.667 133.5,169.5C 114.625,175.74 95.2921,181.74 75.5,187.5C 68.4129,186.919 62.0795,184.585 56.5,180.5C 74.1303,181.154 91.1303,177.654 107.5,170C 110.272,168.14 112.605,165.806 114.5,163C 114.167,162.667 113.833,162.333 113.5,162C 117.688,161.824 121.688,161.324 125.5,160.5C 133.417,159.937 141.084,158.27 148.5,155.5 Z"/></g>
<g><path style="opacity:1" fill="#bbbbc0" d="M 133.5,173.5 C 116.381,187.467 97.0477,192.134 75.5,187.5C 95.2921,181.74 114.625,175.74 133.5,169.5C 134.167,169.667 134.833,169.833 135.5,170C 134.5,171 133.5,172 132.5,173C 132.728,173.399 133.062,173.565 133.5,173.5 Z"/></g>
<g><path style="opacity:1" fill="#9c9eb4" d="M 105.5,159.5 C 112.123,160.38 118.789,160.713 125.5,160.5C 121.688,161.324 117.688,161.824 113.5,162C 113.833,162.333 114.167,162.667 114.5,163C 112.605,165.806 110.272,168.14 107.5,170C 91.1303,177.654 74.1303,181.154 56.5,180.5C 51.1205,178.145 46.4538,174.812 42.5,170.5C 43.5145,169.235 45.0145,168.569 47,168.5C 50.4281,168.69 53.7614,169.357 57,170.5C 57.5,170.333 58,170.167 58.5,170C 57.0403,169.189 56.707,168.355 57.5,167.5C 59.1727,169.086 61.1727,169.753 63.5,169.5C 63.9175,170.222 64.5842,170.722 65.5,171C 79.1913,173.16 91.5247,170.16 102.5,162C 103.833,161.333 103.833,160.667 102.5,160C 103.448,159.517 104.448,159.351 105.5,159.5 Z"/></g>
<g><path style="opacity:0.986" fill="#d5d7dc" d="M 103.5,190.5 C 105.292,191.309 107.292,191.809 109.5,192C 108,192.833 106.833,194 106,195.5C 105.667,195.167 105.333,194.833 105,194.5C 101.979,198.002 99.1456,201.002 96.5,203.5C 101.456,204.494 106.456,204.827 111.5,204.5C 95.6361,206.079 80.3028,203.746 65.5,197.5C 65.5858,196.504 65.2524,195.671 64.5,195C 66.4552,194.047 68.1218,192.713 69.5,191C 69.1667,190.667 68.8333,190.333 68.5,190C 69.3333,189.833 70.1667,189.667 71,189.5C 81.7767,191.72 92.61,192.053 103.5,190.5 Z"/></g>
</svg>
