<?xml version="1.0" encoding="UTF-8"?>
<!DOCTYPE svg PUBLIC "-//W3C//DTD SVG 1.1//EN" "http://www.w3.org/Graphics/SVG/1.1/DTD/svg11.dtd">
<svg xmlns="http://www.w3.org/2000/svg" version="1.1" width="208px" height="208px" style="shape-rendering:geometricPrecision; text-rendering:geometricPrecision; image-rendering:optimizeQuality; fill-rule:evenodd; clip-rule:evenodd" xmlns:xlink="http://www.w3.org/1999/xlink">
<g><path style="opacity:0.961" fill="#fac33b" d="M 92.5,26.5 C 104.505,26.3335 116.505,26.5001 128.5,27C 137.097,27.9758 145.097,30.4758 152.5,34.5C 152.027,35.9063 151.027,36.573 149.5,36.5C 136.817,30.9999 123.484,28.3332 109.5,28.5C 108.167,28.5 106.833,28.5 105.5,28.5C 100.99,28.1156 96.6565,27.4489 92.5,26.5 Z"/></g>
<g><path style="opacity:1" fill="#03a9c1" d="M 122.5,71.5 C 118.374,81.6249 111.708,89.6249 102.5,95.5C 100.062,97.2672 97.395,98.6006 94.5,99.5C 87.6858,94.9208 81.0191,90.0875 74.5,85C 73.552,84.5172 72.552,84.3505 71.5,84.5C 72.5,83.1667 73.5,81.8333 74.5,80.5C 78.6335,76.2526 80.4668,71.2526 80,65.5C 74.3508,59.5168 67.3508,56.8501 59,57.5C 52.0084,57.7054 45.5084,59.3721 39.5,62.5C 36.7594,62.7073 34.4261,63.7073 32.5,65.5C 29.0078,66.4097 26.0078,68.0764 23.5,70.5C 21.2654,71.2279 19.4321,72.5612 18,74.5C 17.5357,73.9056 17.369,73.2389 17.5,72.5C 31.7641,54.5577 49.4308,41.2244 70.5,32.5C 70.56,33.0431 70.8933,33.3764 71.5,33.5C 75.9684,31.2626 80.4684,30.2626 85,30.5C 86.9131,33.1224 89.2465,34.1224 92,33.5C 92.3742,34.4162 92.8742,35.2496 93.5,36C 92.09,36.3678 91.09,37.2011 90.5,38.5C 91.6034,38.9976 92.6034,39.3309 93.5,39.5C 92.6314,41.8678 90.9647,43.3678 88.5,44C 97.0779,53.7449 106.745,62.2449 117.5,69.5C 118.281,70.7287 118.781,72.062 119,73.5C 119.333,72.5 119.667,71.5 120,70.5C 120.671,71.2524 121.504,71.5858 122.5,71.5 Z"/></g>
<g><path style="opacity:1" fill="#0dafc4" d="M 92.5,26.5 C 96.6565,27.4489 100.99,28.1156 105.5,28.5C 115.473,33.8008 122.139,41.8008 125.5,52.5C 126.089,59.2223 125.089,65.5556 122.5,71.5C 121.504,71.5858 120.671,71.2524 120,70.5C 119.667,71.5 119.333,72.5 119,73.5C 118.781,72.062 118.281,70.7287 117.5,69.5C 106.745,62.2449 97.0779,53.7449 88.5,44C 90.9647,43.3678 92.6314,41.8678 93.5,39.5C 92.6034,39.3309 91.6034,38.9976 90.5,38.5C 91.09,37.2011 92.09,36.3678 93.5,36C 92.8742,35.2496 92.3742,34.4162 92,33.5C 89.2465,34.1224 86.9131,33.1224 85,30.5C 80.4684,30.2626 75.9684,31.2626 71.5,33.5C 70.8933,33.3764 70.56,33.0431 70.5,32.5C 77.6464,29.8797 84.9797,27.8797 92.5,26.5 Z"/></g>
<g><path style="opacity:1" fill="#edc556" d="M 109.5,28.5 C 123.484,28.3332 136.817,30.9999 149.5,36.5C 144.056,43.477 143.056,51.1437 146.5,59.5C 142.012,52.7519 136.678,46.5852 130.5,41C 123.735,36.2902 116.735,32.1235 109.5,28.5 Z"/></g>
<g><path style="opacity:1" fill="#fd5932" d="M 105.5,28.5 C 106.833,28.5 108.167,28.5 109.5,28.5C 116.735,32.1235 123.735,36.2902 130.5,41C 136.678,46.5852 142.012,52.7519 146.5,59.5C 147.979,63.2803 149.646,66.9469 151.5,70.5C 151.833,71.8333 152.167,73.1667 152.5,74.5C 151.778,74.9175 151.278,75.5842 151,76.5C 142.281,67.9235 133.781,59.9235 125.5,52.5C 122.139,41.8008 115.473,33.8008 105.5,28.5 Z"/></g>
<g><path style="opacity:0.999" fill="#08ce9c" d="M 152.5,34.5 C 166.091,39.5907 175.591,48.924 181,62.5C 183.337,68.8444 185.67,75.1777 188,81.5C 193.564,87.5781 200.064,92.2447 207.5,95.5C 207.5,98.5 207.5,101.5 207.5,104.5C 206.236,106.27 204.736,107.937 203,109.5C 202.126,112.961 202.96,115.961 205.5,118.5C 205.124,120.383 204.124,121.883 202.5,123C 204.396,124.808 204.896,126.975 204,129.5C 202.331,130.846 201.164,132.513 200.5,134.5C 200.698,136.575 200.865,138.575 201,140.5C 197.196,137.706 193.363,134.873 189.5,132C 187.513,130.681 186.346,128.848 186,126.5C 185.667,126.833 185.333,127.167 185,127.5C 184.722,126.584 184.222,125.918 183.5,125.5C 183.5,122.167 183.5,118.833 183.5,115.5C 181.979,103.121 176.312,93.1212 166.5,85.5C 161.14,80.8063 156.14,75.8063 151.5,70.5C 149.646,66.9469 147.979,63.2803 146.5,59.5C 143.056,51.1437 144.056,43.477 149.5,36.5C 151.027,36.573 152.027,35.9063 152.5,34.5 Z"/></g>
<g><path style="opacity:1" fill="#fe4c2b" d="M 152.5,74.5 C 156.479,85.0141 158.146,96.0141 157.5,107.5C 156.277,116.046 153.944,124.38 150.5,132.5C 146.251,129.434 142.085,126.101 138,122.5C 137.586,122.957 137.086,123.291 136.5,123.5C 131.938,119.449 126.938,115.949 121.5,113C 121.833,112.667 122.167,112.333 122.5,112C 120.709,111.585 119.376,110.585 118.5,109C 116.754,108.529 115.087,107.862 113.5,107C 113.833,106.667 114.167,106.333 114.5,106C 110.42,104.92 107.586,102.42 106,98.5C 105.333,101.167 104.667,101.167 104,98.5C 103.667,98.8333 103.333,99.1667 103,99.5C 102.51,98.2068 102.343,96.8734 102.5,95.5C 111.708,89.6249 118.374,81.6249 122.5,71.5C 125.089,65.5556 126.089,59.2223 125.5,52.5C 133.781,59.9235 142.281,67.9235 151,76.5C 151.278,75.5842 151.778,74.9175 152.5,74.5 Z"/></g>
<g><path style="opacity:1" fill="#009098" d="M 39.5,62.5 C 40.5417,63.7911 41.7083,63.7911 43,62.5C 48.2634,65.4068 53.7634,67.9068 59.5,70C 65.2661,72.5638 70.2661,76.0638 74.5,80.5C 73.5,81.8333 72.5,83.1667 71.5,84.5C 69.6675,85.2485 68.0009,86.2485 66.5,87.5C 64.7059,85.2034 62.7059,83.0367 60.5,81C 56.5598,79.1135 53.0598,76.6135 50,73.5C 48.6361,74.2583 47.4695,73.7583 46.5,72C 42.1158,70.5432 37.9491,68.7099 34,66.5C 32.8932,67.7119 32.3932,67.3786 32.5,65.5C 34.4261,63.7073 36.7594,62.7073 39.5,62.5 Z"/></g>
<g><path style="opacity:1" fill="#097e8f" d="M 74.5,80.5 C 70.2661,76.0638 65.2661,72.5638 59.5,70C 53.7634,67.9068 48.2634,65.4068 43,62.5C 41.7083,63.7911 40.5417,63.7911 39.5,62.5C 45.5084,59.3721 52.0084,57.7054 59,57.5C 67.3508,56.8501 74.3508,59.5168 80,65.5C 80.4668,71.2526 78.6335,76.2526 74.5,80.5 Z"/></g>
<g><path style="opacity:1" fill="#009d9b" d="M 32.5,65.5 C 32.3932,67.3786 32.8932,67.7119 34,66.5C 37.9491,68.7099 42.1158,70.5432 46.5,72C 47.4695,73.7583 48.6361,74.2583 50,73.5C 53.0598,76.6135 56.5598,79.1135 60.5,81C 62.7059,83.0367 64.7059,85.2034 66.5,87.5C 63.039,90.0692 59.3723,92.4026 55.5,94.5C 54.9524,92.6064 53.9524,90.9397 52.5,89.5C 52.7093,88.914 53.0426,88.414 53.5,88C 50.7088,85.7112 48.0421,83.2112 45.5,80.5C 38.1085,76.4563 30.7751,73.1229 23.5,70.5C 26.0078,68.0764 29.0078,66.4097 32.5,65.5 Z"/></g>
<g><path style="opacity:1" fill="#00aa9c" d="M 23.5,70.5 C 30.7751,73.1229 38.1085,76.4563 45.5,80.5C 48.0421,83.2112 50.7088,85.7112 53.5,88C 53.0426,88.414 52.7093,88.914 52.5,89.5C 53.9524,90.9397 54.9524,92.6064 55.5,94.5C 52.2938,95.4541 49.2938,96.7875 46.5,98.5C 46.631,97.7611 46.4643,97.0944 46,96.5C 45,96.8333 44,97.1667 43,97.5C 41.1696,94.9159 40.3363,92.2492 40.5,89.5C 39.8076,90.0253 39.3076,90.6919 39,91.5C 36.1689,88.8969 33.8355,86.5636 32,84.5C 31.6667,84.8333 31.3333,85.1667 31,85.5C 27.8947,82.3431 24.0613,80.5098 19.5,80C 18.2412,79.0766 16.9079,78.2432 15.5,77.5C 16.5498,76.5712 16.5498,75.9046 15.5,75.5C 15.9321,74.2905 16.5987,73.2905 17.5,72.5C 17.369,73.2389 17.5357,73.9056 18,74.5C 19.4321,72.5612 21.2654,71.2279 23.5,70.5 Z"/></g>
<g><path style="opacity:0.985" fill="#00b598" d="M 15.5,75.5 C 16.5498,75.9046 16.5498,76.5712 15.5,77.5C 16.9079,78.2432 18.2412,79.0766 19.5,80C 24.0613,80.5098 27.8947,82.3431 31,85.5C 31.3333,85.1667 31.6667,84.8333 32,84.5C 33.8355,86.5636 36.1689,88.8969 39,91.5C 39.3076,90.6919 39.8076,90.0253 40.5,89.5C 40.3363,92.2492 41.1696,94.9159 43,97.5C 44,97.1667 45,96.8333 46,96.5C 46.4643,97.0944 46.631,97.7611 46.5,98.5C 43.1268,99.0659 40.1268,100.399 37.5,102.5C 35.4437,101.784 33.277,101.117 31,100.5C 30.6667,100.833 30.3333,101.167 30,101.5C 28.017,99.0028 28.8503,97.8361 32.5,98C 30.431,94.124 27.431,92.7906 23.5,94C 24.6039,92.8687 24.2705,92.0354 22.5,91.5C 22.1667,92.1667 21.8333,92.8333 21.5,93.5C 20.6667,91.5 19.8333,89.5 19,87.5C 18.586,87.9574 18.086,88.2907 17.5,88.5C 15.0177,86.6565 12.351,85.3231 9.5,84.5C 10.7589,80.9754 12.7589,77.9754 15.5,75.5 Z"/></g>
<g><path style="opacity:1" fill="#feb83b" d="M 151.5,70.5 C 156.14,75.8063 161.14,80.8063 166.5,85.5C 165.365,86.4745 164.365,87.6412 163.5,89C 164.397,91.8825 164.397,94.8825 163.5,98C 166.319,101.803 168.485,105.97 170,110.5C 171,111.833 172,111.833 173,110.5C 173.617,111.449 173.451,112.282 172.5,113C 174.676,113.163 176.509,113.996 178,115.5C 179.707,114.862 181.54,114.862 183.5,115.5C 183.5,118.833 183.5,122.167 183.5,125.5C 183.167,125.5 182.833,125.5 182.5,125.5C 182.5,124.167 182.5,122.833 182.5,121.5C 180.876,121.36 179.71,122.027 179,123.5C 177.312,121.955 175.312,120.955 173,120.5C 172.586,120.957 172.086,121.291 171.5,121.5C 170.571,120.311 170.238,118.978 170.5,117.5C 168.133,116.836 166.133,115.503 164.5,113.5C 164.347,110.89 163.014,108.557 160.5,106.5C 158.869,108.059 158.036,110.059 158,112.5C 157.506,110.866 157.34,109.199 157.5,107.5C 158.146,96.0141 156.479,85.0141 152.5,74.5C 152.167,73.1667 151.833,71.8333 151.5,70.5 Z"/></g>
<g><path style="opacity:0.998" fill="#00b88f" d="M 9.5,84.5 C 12.351,85.3231 15.0177,86.6565 17.5,88.5C 18.086,88.2907 18.586,87.9574 19,87.5C 19.8333,89.5 20.6667,91.5 21.5,93.5C 21.8333,92.8333 22.1667,92.1667 22.5,91.5C 24.2705,92.0354 24.6039,92.8687 23.5,94C 27.431,92.7906 30.431,94.124 32.5,98C 28.8503,97.8361 28.017,99.0028 30,101.5C 30.3333,101.167 30.6667,100.833 31,100.5C 33.277,101.117 35.4437,101.784 37.5,102.5C 34.8069,103.552 32.1402,104.552 29.5,105.5C 29.1667,105.5 28.8333,105.5 28.5,105.5C 27.8333,105.5 27.5,105.833 27.5,106.5C 20.0521,107.35 13.5521,105.35 8,100.5C 6.01888,94.8832 6.51888,89.5498 9.5,84.5 Z"/></g>
<g><path style="opacity:1" fill="#0499b0" d="M 71.5,84.5 C 72.552,84.3505 73.552,84.5172 74.5,85C 81.0191,90.0875 87.6858,94.9208 94.5,99.5C 87.955,102.898 81.2883,105.898 74.5,108.5C 62.6716,109.416 52.6716,114.083 44.5,122.5C 43.4583,121.209 42.2917,121.209 41,122.5C 40.5048,120.01 39.0048,118.51 36.5,118C 38.9288,117.549 39.0955,116.715 37,115.5C 35,116.167 33,116.833 31,117.5C 29.4419,116.655 28.4419,117.321 28,119.5C 23.18,119.801 18.5133,121.468 14,124.5C 12.7012,124.034 11.2012,124.034 9.5,124.5C 9.5,123.5 9.5,122.5 9.5,121.5C 14.7612,115.547 20.7612,110.547 27.5,106.5C 27.5,105.833 27.8333,105.5 28.5,105.5C 28.8333,106.833 29.1667,106.833 29.5,105.5C 32.1402,104.552 34.8069,103.552 37.5,102.5C 40.1268,100.399 43.1268,99.0659 46.5,98.5C 49.2938,96.7875 52.2938,95.4541 55.5,94.5C 59.3723,92.4026 63.039,90.0692 66.5,87.5C 68.0009,86.2485 69.6675,85.2485 71.5,84.5 Z"/></g>
<g><path style="opacity:1" fill="#f24a30" d="M 102.5,95.5 C 102.343,96.8734 102.51,98.2068 103,99.5C 103.333,99.1667 103.667,98.8333 104,98.5C 104.667,101.167 105.333,101.167 106,98.5C 107.586,102.42 110.42,104.92 114.5,106C 114.167,106.333 113.833,106.667 113.5,107C 115.087,107.862 116.754,108.529 118.5,109C 119.376,110.585 120.709,111.585 122.5,112C 122.167,112.333 121.833,112.667 121.5,113C 126.938,115.949 131.938,119.449 136.5,123.5C 137.086,123.291 137.586,122.957 138,122.5C 142.085,126.101 146.251,129.434 150.5,132.5C 150.5,132.833 150.5,133.167 150.5,133.5C 148.046,138.408 145.546,143.408 143,148.5C 141.669,150.996 139.836,152.996 137.5,154.5C 136.553,152.713 135.387,151.047 134,149.5C 132.836,149.165 131.503,149.165 130,149.5C 129.824,145.312 129.324,141.312 128.5,137.5C 126.786,125.109 120.119,116.442 108.5,111.5C 98.6252,107.763 88.6252,106.763 78.5,108.5C 77.1667,108.5 75.8333,108.5 74.5,108.5C 81.2883,105.898 87.955,102.898 94.5,99.5C 97.395,98.6006 100.062,97.2672 102.5,95.5 Z"/></g>
<g><path style="opacity:1" fill="#faad33" d="M 182.5,125.5 C 181.017,133.973 177.017,140.973 170.5,146.5C 169.532,143.956 167.865,141.789 165.5,140C 161.332,137.75 157.332,135.25 153.5,132.5C 152.583,133.127 151.583,133.461 150.5,133.5C 150.5,133.167 150.5,132.833 150.5,132.5C 153.944,124.38 156.277,116.046 157.5,107.5C 157.34,109.199 157.506,110.866 158,112.5C 158.036,110.059 158.869,108.059 160.5,106.5C 163.014,108.557 164.347,110.89 164.5,113.5C 166.133,115.503 168.133,116.836 170.5,117.5C 170.238,118.978 170.571,120.311 171.5,121.5C 172.086,121.291 172.586,120.957 173,120.5C 175.312,120.955 177.312,121.955 179,123.5C 179.71,122.027 180.876,121.36 182.5,121.5C 182.5,122.833 182.5,124.167 182.5,125.5 Z"/></g>
<g><path style="opacity:1" fill="#fdc04f" d="M 166.5,85.5 C 176.312,93.1212 181.979,103.121 183.5,115.5C 181.54,114.862 179.707,114.862 178,115.5C 176.509,113.996 174.676,113.163 172.5,113C 173.451,112.282 173.617,111.449 173,110.5C 172,111.833 171,111.833 170,110.5C 168.485,105.97 166.319,101.803 163.5,98C 164.397,94.8825 164.397,91.8825 163.5,89C 164.365,87.6412 165.365,86.4745 166.5,85.5 Z"/></g>
<g><path style="opacity:1" fill="#89554f" d="M 78.5,108.5 C 88.6252,106.763 98.6252,107.763 108.5,111.5C 114.821,116.474 116.821,122.807 114.5,130.5C 114.5,131.167 114.167,131.5 113.5,131.5C 112.797,129.284 111.464,127.451 109.5,126C 106.953,123.946 104.286,122.113 101.5,120.5C 95.7167,113.106 88.05,109.106 78.5,108.5 Z"/></g>
<g><path style="opacity:1" fill="#018899" d="M 44.5,122.5 C 38.7349,131.709 32.7349,140.709 26.5,149.5C 24.3677,147.606 25.0343,146.106 28.5,145C 26.0694,144.705 24.236,143.538 23,141.5C 22.6667,141.833 22.3333,142.167 22,142.5C 21.7451,139.207 20.2451,138.04 17.5,139C 16.8333,138 16.1667,137 15.5,136C 9.90702,136.585 4.57369,137.418 -0.5,138.5C -0.5,137.833 -0.5,137.167 -0.5,136.5C 2.08912,130.984 5.42245,125.984 9.5,121.5C 9.5,122.5 9.5,123.5 9.5,124.5C 11.2012,124.034 12.7012,124.034 14,124.5C 18.5133,121.468 23.18,119.801 28,119.5C 28.4419,117.321 29.4419,116.655 31,117.5C 33,116.833 35,116.167 37,115.5C 39.0955,116.715 38.9288,117.549 36.5,118C 39.0048,118.51 40.5048,120.01 41,122.5C 42.2917,121.209 43.4583,121.209 44.5,122.5 Z"/></g>
<g><path style="opacity:1" fill="#7a7767" d="M 101.5,120.5 C 104.286,122.113 106.953,123.946 109.5,126C 111.464,127.451 112.797,129.284 113.5,131.5C 112.5,133.5 111.5,135.5 110.5,137.5C 110.5,138.167 110.167,138.5 109.5,138.5C 108.587,136.914 108.587,135.414 109.5,134C 108.234,133.691 107.067,133.191 106,132.5C 105.155,130.389 104.322,128.389 103.5,126.5C 102.637,124.579 101.971,122.579 101.5,120.5 Z"/></g>
<g><path style="opacity:1" fill="#bb4a36" d="M 108.5,111.5 C 120.119,116.442 126.786,125.109 128.5,137.5C 128.872,143.43 128.205,149.097 126.5,154.5C 124.807,147.104 121.974,140.104 118,133.5C 116.961,132.29 115.794,131.29 114.5,130.5C 116.821,122.807 114.821,116.474 108.5,111.5 Z"/></g>
<g><path style="opacity:1" fill="#619279" d="M 103.5,126.5 C 104.322,128.389 105.155,130.389 106,132.5C 107.067,133.191 108.234,133.691 109.5,134C 108.587,135.414 108.587,136.914 109.5,138.5C 107.5,140.5 105.5,142.5 103.5,144.5C 103.167,144.5 102.833,144.5 102.5,144.5C 101.737,143.732 100.737,143.232 99.5,143C 100.738,142.31 100.738,141.81 99.5,141.5C 102.458,136.956 103.791,131.956 103.5,126.5 Z"/></g>
<g><path style="opacity:1" fill="#0d7b89" d="M 26.5,149.5 C 20.823,157.167 13.4897,159.334 4.5,156C 2.44965,154.035 0.782988,151.868 -0.5,149.5C -0.5,145.833 -0.5,142.167 -0.5,138.5C 4.57369,137.418 9.90702,136.585 15.5,136C 16.1667,137 16.8333,138 17.5,139C 20.2451,138.04 21.7451,139.207 22,142.5C 22.3333,142.167 22.6667,141.833 23,141.5C 24.236,143.538 26.0694,144.705 28.5,145C 25.0343,146.106 24.3677,147.606 26.5,149.5 Z"/></g>
<g><path style="opacity:1" fill="#e99e37" d="M 170.5,146.5 C 168.756,148.75 166.756,150.917 164.5,153C 159.773,155.285 155.107,157.452 150.5,159.5C 139.833,162.668 129.5,166.668 119.5,171.5C 126.104,166.565 132.104,160.898 137.5,154.5C 139.836,152.996 141.669,150.996 143,148.5C 145.546,143.408 148.046,138.408 150.5,133.5C 151.583,133.461 152.583,133.127 153.5,132.5C 157.332,135.25 161.332,137.75 165.5,140C 167.865,141.789 169.532,143.956 170.5,146.5 Z"/></g>
<g><path style="opacity:1" fill="#cf663f" d="M 114.5,130.5 C 115.794,131.29 116.961,132.29 118,133.5C 121.974,140.104 124.807,147.104 126.5,154.5C 125.59,157.992 123.924,160.992 121.5,163.5C 121.092,155.133 118.592,146.8 114,138.5C 112.989,137.663 111.822,137.33 110.5,137.5C 111.5,135.5 112.5,133.5 113.5,131.5C 114.167,131.5 114.5,131.167 114.5,130.5 Z"/></g>
<g><path style="opacity:0.999" fill="#0cc298" d="M 182.5,125.5 C 182.833,125.5 183.167,125.5 183.5,125.5C 184.222,125.918 184.722,126.584 185,127.5C 185.333,127.167 185.667,126.833 186,126.5C 186.346,128.848 187.513,130.681 189.5,132C 193.363,134.873 197.196,137.706 201,140.5C 200.865,138.575 200.698,136.575 200.5,134.5C 207.013,149.143 202.347,157.476 186.5,159.5C 174.492,158.167 162.492,158.167 150.5,159.5C 155.107,157.452 159.773,155.285 164.5,153C 166.756,150.917 168.756,148.75 170.5,146.5C 177.017,140.973 181.017,133.973 182.5,125.5 Z"/></g>
<g><path style="opacity:0.859" fill="#34b78e" d="M 99.5,141.5 C 100.738,141.81 100.738,142.31 99.5,143C 100.737,143.232 101.737,143.732 102.5,144.5C 99.5,145.833 96.5,147.167 93.5,148.5C 91.965,149.354 90.6316,149.354 89.5,148.5C 93.3865,146.945 96.7198,144.612 99.5,141.5 Z"/></g>
<g><path style="opacity:1" fill="#e68442" d="M 110.5,137.5 C 111.822,137.33 112.989,137.663 114,138.5C 118.592,146.8 121.092,155.133 121.5,163.5C 118.35,168.815 114.017,172.981 108.5,176C 108.728,176.399 109.062,176.565 109.5,176.5C 108.71,177.401 107.71,178.068 106.5,178.5C 106.082,177.778 105.416,177.278 104.5,177C 105.641,176.259 105.641,175.425 104.5,174.5C 106.27,173.18 106.603,171.68 105.5,170C 106.167,169 106.833,168 107.5,167C 107.115,159.77 105.448,152.937 102.5,146.5C 102.863,145.817 103.196,145.15 103.5,144.5C 105.5,142.5 107.5,140.5 109.5,138.5C 110.167,138.5 110.5,138.167 110.5,137.5 Z"/></g>
<g><path style="opacity:1" fill="#de4d37" d="M 128.5,137.5 C 129.324,141.312 129.824,145.312 130,149.5C 131.503,149.165 132.836,149.165 134,149.5C 135.387,151.047 136.553,152.713 137.5,154.5C 132.104,160.898 126.104,166.565 119.5,171.5C 116.485,173.674 113.151,175.341 109.5,176.5C 109.062,176.565 108.728,176.399 108.5,176C 114.017,172.981 118.35,168.815 121.5,163.5C 123.924,160.992 125.59,157.992 126.5,154.5C 128.205,149.097 128.872,143.43 128.5,137.5 Z"/></g>
<g><path style="opacity:1" fill="#f99d3f" d="M 102.5,144.5 C 102.833,144.5 103.167,144.5 103.5,144.5C 103.196,145.15 102.863,145.817 102.5,146.5C 105.448,152.937 107.115,159.77 107.5,167C 106.833,168 106.167,169 105.5,170C 106.603,171.68 106.27,173.18 104.5,174.5C 105.641,175.425 105.641,176.259 104.5,177C 105.416,177.278 106.082,177.778 106.5,178.5C 102.658,180.002 98.6575,180.668 94.5,180.5C 94.3893,179.883 94.056,179.383 93.5,179C 95.1274,176.246 96.6274,173.412 98,170.5C 99.6992,161.535 98.1992,154.202 93.5,148.5C 96.5,147.167 99.5,145.833 102.5,144.5 Z"/></g>
<g><path style="opacity:0.996" fill="#fdaa34" d="M 89.5,148.5 C 90.6316,149.354 91.965,149.354 93.5,148.5C 98.1992,154.202 99.6992,161.535 98,170.5C 96.6274,173.412 95.1274,176.246 93.5,179C 94.056,179.383 94.3893,179.883 94.5,180.5C 89.8215,180.666 85.1548,180.499 80.5,180C 78.1484,179.76 76.1484,178.927 74.5,177.5C 77.9061,176.22 81.4061,173.886 85,170.5C 88.6033,161.712 86.1033,155.379 77.5,151.5C 75.0238,152.229 72.5238,152.896 70,153.5C 69.2352,153.43 68.7352,153.097 68.5,152.5C 75.2877,150.644 82.2877,149.311 89.5,148.5 Z"/></g>
<g><path style="opacity:1" fill="#fead22" d="M 74.5,177.5 C 64.2049,174.419 60.0383,167.753 62,157.5C 63.7581,155.235 65.9248,153.568 68.5,152.5C 68.7352,153.097 69.2352,153.43 70,153.5C 72.5238,152.896 75.0238,152.229 77.5,151.5C 86.1033,155.379 88.6033,161.712 85,170.5C 81.4061,173.886 77.9061,176.22 74.5,177.5 Z"/></g>
</svg>
