<?xml version="1.0" encoding="UTF-8"?>
<!DOCTYPE svg PUBLIC "-//W3C//DTD SVG 1.1//EN" "http://www.w3.org/Graphics/SVG/1.1/DTD/svg11.dtd">
<svg xmlns="http://www.w3.org/2000/svg" version="1.1" width="125px" height="125px" style="shape-rendering:geometricPrecision; text-rendering:geometricPrecision; image-rendering:optimizeQuality; fill-rule:evenodd; clip-rule:evenodd" xmlns:xlink="http://www.w3.org/1999/xlink">
<g><path style="opacity:0.93" fill="#fefffe" d="M 88.5,61.5 C 93.5076,57.5178 97.5076,53.1845 100.5,48.5C 97.0154,51.484 93.682,54.6507 90.5,58C 73.9949,58.1685 57.6615,58.6685 41.5,59.5C 39.302,59.1201 37.6354,59.7868 36.5,61.5C 34.9731,61.427 33.9731,62.0937 33.5,63.5C 32.8333,63.5 32.5,63.8333 32.5,64.5C 31.8333,64.5 31.5,64.8333 31.5,65.5C 30.8333,65.5 30.5,65.8333 30.5,66.5C 29.8333,66.5 29.5,66.8333 29.5,67.5C 28.8333,67.5 28.5,67.8333 28.5,68.5C 27.8333,68.5 27.5,68.8333 27.5,69.5C 26.8333,69.5 26.5,69.8333 26.5,70.5C 25.8333,70.5 25.5,70.8333 25.5,71.5C 24.8333,71.5 24.5,71.8333 24.5,72.5C 23.8333,72.5 23.5,72.8333 23.5,73.5C 22.8333,73.5 22.5,73.8333 22.5,74.5C 21.8333,74.5 21.5,74.8333 21.5,75.5C 20.8333,75.5 20.5,75.8333 20.5,76.5C 13.9141,77.6258 7.24744,77.7925 0.5,77C 8.5,69 16.5,61 24.5,53C 27.718,50.2235 31.3847,48.2235 35.5,47C 64.9926,46.3928 94.3259,46.5594 123.5,47.5C 113.347,57.1523 103.347,66.9857 93.5,77C 86.5,77.6667 79.5,77.6667 72.5,77C 78.3367,72.3296 83.67,67.163 88.5,61.5 Z M 88.5,61.5 C 73.2023,59.5156 57.5357,58.8489 41.5,59.5C 57.6615,58.6685 73.9949,58.1685 90.5,58C 93.682,54.6507 97.0154,51.484 100.5,48.5C 97.5076,53.1845 93.5076,57.5178 88.5,61.5 Z M 41.5,59.5 C 40.0697,60.5375 38.403,61.2041 36.5,61.5C 37.6354,59.7868 39.302,59.1201 41.5,59.5 Z M 36.5,61.5 C 36.0269,62.9063 35.0269,63.573 33.5,63.5C 33.9731,62.0937 34.9731,61.427 36.5,61.5 Z"/></g>
<g><path style="opacity:0.883" fill="#fefffe" d="M 41.5,59.5 C 57.5357,58.8489 73.2023,59.5156 88.5,61.5C 84.4302,64.0604 80.7635,67.2271 77.5,71C 66.1667,71.3333 54.8333,71.6667 43.5,72C 41.8333,73.6667 40.1667,75.3333 38.5,77C 32.3188,77.8192 26.3188,77.6525 20.5,76.5C 21.1667,76.5 21.5,76.1667 21.5,75.5C 22.1667,75.5 22.5,75.1667 22.5,74.5C 23.1667,74.5 23.5,74.1667 23.5,73.5C 24.1667,73.5 24.5,73.1667 24.5,72.5C 25.1667,72.5 25.5,72.1667 25.5,71.5C 26.1667,71.5 26.5,71.1667 26.5,70.5C 27.1667,70.5 27.5,70.1667 27.5,69.5C 28.1667,69.5 28.5,69.1667 28.5,68.5C 29.1667,68.5 29.5,68.1667 29.5,67.5C 30.1667,67.5 30.5,67.1667 30.5,66.5C 31.1667,66.5 31.5,66.1667 31.5,65.5C 32.1667,65.5 32.5,65.1667 32.5,64.5C 33.1667,64.5 33.5,64.1667 33.5,63.5C 35.0269,63.573 36.0269,62.9063 36.5,61.5C 38.403,61.2041 40.0697,60.5375 41.5,59.5 Z"/></g>
</svg>
