<?xml version="1.0" encoding="UTF-8"?>
<!DOCTYPE svg PUBLIC "-//W3C//DTD SVG 1.1//EN" "http://www.w3.org/Graphics/SVG/1.1/DTD/svg11.dtd">
<svg xmlns="http://www.w3.org/2000/svg" version="1.1" width="208px" height="208px" style="shape-rendering:geometricPrecision; text-rendering:geometricPrecision; image-rendering:optimizeQuality; fill-rule:evenodd; clip-rule:evenodd" xmlns:xlink="http://www.w3.org/1999/xlink">
<g><path style="opacity:0.987" fill="#ff7300" d="M 96.5,-0.5 C 97.5,-0.5 98.5,-0.5 99.5,-0.5C 98.8592,0.482236 98.1925,1.48224 97.5,2.5C 97.9461,4.36816 98.2795,6.20149 98.5,8C 97.6919,8.30762 97.0253,8.80762 96.5,9.5C 97.1162,12.0222 97.4495,14.8555 97.5,18C 96.7069,19.0852 96.0402,20.2519 95.5,21.5C 95.6106,26.3911 95.6106,31.2244 95.5,36C 92.8333,36.6667 92.8333,37.3333 95.5,38C 94.1667,39.3333 94.1667,40.6667 95.5,42C 93.4078,42.9525 93.0745,44.2859 94.5,46C 93.8333,49.3333 93.1667,52.6667 92.5,56C 91.9615,67.6925 91.9615,79.1925 92.5,90.5C 91.391,90.4431 90.391,90.1098 89.5,89.5C 88.0299,87.8487 86.6966,86.0153 85.5,84C 85.8819,78.3537 86.5486,72.5204 87.5,66.5C 87.2907,65.914 86.9574,65.414 86.5,65C 87.1667,62.3333 87.8333,59.6667 88.5,57C 87.7145,54.0916 87.3812,51.2582 87.5,48.5C 88.1062,46.2906 88.7728,44.124 89.5,42C 89.6567,33.178 89.6567,24.5113 89.5,16C 90.3483,12.7444 91.015,9.41103 91.5,6C 91.3158,4.62439 90.6491,3.79106 89.5,3.5C 91.7026,1.89984 94.036,0.56651 96.5,-0.5 Z"/></g>
<g><path style="opacity:0.999" fill="#ff6c01" d="M 99.5,-0.5 C 101.833,-0.5 104.167,-0.5 106.5,-0.5C 105.669,2.67289 105.669,5.67289 106.5,8.5C 104.978,13.0352 103.978,17.7019 103.5,22.5C 103.477,25.3529 103.81,27.8529 104.5,30C 103.833,31.3333 102.833,32.3333 101.5,33C 102.833,35 102.833,37 101.5,39C 103.991,39.6259 103.991,40.4593 101.5,41.5C 102.057,43.2352 102.39,44.9018 102.5,46.5C 100.027,48.0981 100.027,49.5981 102.5,51C 100.375,53.4224 100.042,55.7557 101.5,58C 100.692,58.3076 100.025,58.8076 99.5,59.5C 99.1857,62.5593 99.519,65.3926 100.5,68C 99.6919,68.3076 99.0253,68.8076 98.5,69.5C 98.7061,72.053 99.0394,74.553 99.5,77C 97.8712,79.2615 97.5378,81.5948 98.5,84C 96.1147,87.8506 96.4481,91.1839 99.5,94C 103.477,95.803 106.811,98.303 109.5,101.5C 108.035,102.737 106.368,103.737 104.5,104.5C 100.945,99.4046 96.9449,94.738 92.5,90.5C 91.9615,79.1925 91.9615,67.6925 92.5,56C 93.1667,52.6667 93.8333,49.3333 94.5,46C 93.0745,44.2859 93.4078,42.9525 95.5,42C 94.1667,40.6667 94.1667,39.3333 95.5,38C 92.8333,37.3333 92.8333,36.6667 95.5,36C 95.6106,31.2244 95.6106,26.3911 95.5,21.5C 96.0402,20.2519 96.7069,19.0852 97.5,18C 97.4495,14.8555 97.1162,12.0222 96.5,9.5C 97.0253,8.80762 97.6919,8.30762 98.5,8C 98.2795,6.20149 97.9461,4.36816 97.5,2.5C 98.1925,1.48224 98.8592,0.482236 99.5,-0.5 Z"/></g>
<g><path style="opacity:0.993" fill="#ff6700" d="M 106.5,-0.5 C 108.167,-0.5 109.833,-0.5 111.5,-0.5C 113.261,0.312714 114.928,1.31271 116.5,2.5C 116.109,6.22385 116.109,10.0572 116.5,14C 115.743,16.9442 115.077,19.9442 114.5,23C 115.479,25.4373 115.146,27.7706 113.5,30C 114.833,31 114.833,32 113.5,33C 115.991,33.6259 115.991,34.4593 113.5,35.5C 112.955,39.8624 112.955,44.0291 113.5,48C 111.219,49.851 111.219,51.5177 113.5,53C 112.484,53.5194 111.818,54.3527 111.5,55.5C 111.524,59.0536 111.857,62.5536 112.5,66C 111.833,66.3333 111.167,66.6667 110.5,67C 110.707,69.8852 111.04,72.7185 111.5,75.5C 109.403,76.9046 109.07,78.7379 110.5,81C 110.245,82.3261 109.578,83.3261 108.5,84C 109.167,84.3333 109.833,84.6667 110.5,85C 109.74,86.4411 109.074,87.9411 108.5,89.5C 109.532,91.6168 109.532,93.7835 108.5,96C 109.074,97.6067 109.74,99.1067 110.5,100.5C 110.5,101.167 110.167,101.5 109.5,101.5C 106.811,98.303 103.477,95.803 99.5,94C 96.4481,91.1839 96.1147,87.8506 98.5,84C 97.5378,81.5948 97.8712,79.2615 99.5,77C 99.0394,74.553 98.7061,72.053 98.5,69.5C 99.0253,68.8076 99.6919,68.3076 100.5,68C 99.519,65.3926 99.1857,62.5593 99.5,59.5C 100.025,58.8076 100.692,58.3076 101.5,58C 100.042,55.7557 100.375,53.4224 102.5,51C 100.027,49.5981 100.027,48.0981 102.5,46.5C 102.39,44.9018 102.057,43.2352 101.5,41.5C 103.991,40.4593 103.991,39.6259 101.5,39C 102.833,37 102.833,35 101.5,33C 102.833,32.3333 103.833,31.3333 104.5,30C 103.81,27.8529 103.477,25.3529 103.5,22.5C 103.978,17.7019 104.978,13.0352 106.5,8.5C 105.669,5.67289 105.669,2.67289 106.5,-0.5 Z"/></g>
<g><path style="opacity:0.986" fill="#ff6002" d="M 116.5,2.5 C 120.201,4.01164 123.534,6.01164 126.5,8.5C 124.649,9.86638 124.316,11.533 125.5,13.5C 124.907,15.3817 124.24,17.2151 123.5,19C 123.959,22.3415 124.292,25.6748 124.5,29C 123.692,29.3076 123.025,29.8076 122.5,30.5C 122.714,35.2932 123.047,40.1265 123.5,45C 122.833,45.6667 122.167,46.3333 121.5,47C 121.833,50 122.167,53 122.5,56C 121.74,57.4411 121.074,58.9411 120.5,60.5C 121.191,64.5997 121.525,68.5997 121.5,72.5C 120.771,74.9762 120.104,77.4762 119.5,80C 119.905,80.9454 120.572,81.6121 121.5,82C 120.328,83.9926 119.328,85.9926 118.5,88C 118.223,90.7506 118.556,93.2506 119.5,95.5C 116.992,97.9236 113.992,99.5903 110.5,100.5C 109.74,99.1067 109.074,97.6067 108.5,96C 109.532,93.7835 109.532,91.6168 108.5,89.5C 109.074,87.9411 109.74,86.4411 110.5,85C 109.833,84.6667 109.167,84.3333 108.5,84C 109.578,83.3261 110.245,82.3261 110.5,81C 109.07,78.7379 109.403,76.9046 111.5,75.5C 111.04,72.7185 110.707,69.8852 110.5,67C 111.167,66.6667 111.833,66.3333 112.5,66C 111.857,62.5536 111.524,59.0536 111.5,55.5C 111.818,54.3527 112.484,53.5194 113.5,53C 111.219,51.5177 111.219,49.851 113.5,48C 112.955,44.0291 112.955,39.8624 113.5,35.5C 115.991,34.4593 115.991,33.6259 113.5,33C 114.833,32 114.833,31 113.5,30C 115.146,27.7706 115.479,25.4373 114.5,23C 115.077,19.9442 115.743,16.9442 116.5,14C 116.109,10.0572 116.109,6.22385 116.5,2.5 Z"/></g>
<g><path style="opacity:0.998" fill="#ff7900" d="M 89.5,3.5 C 90.6491,3.79106 91.3158,4.62439 91.5,6C 91.015,9.41103 90.3483,12.7444 89.5,16C 89.6567,24.5113 89.6567,33.178 89.5,42C 88.7728,44.124 88.1062,46.2906 87.5,48.5C 87.3812,51.2582 87.7145,54.0916 88.5,57C 87.8333,59.6667 87.1667,62.3333 86.5,65C 86.9574,65.414 87.2907,65.914 87.5,66.5C 86.5486,72.5204 85.8819,78.3537 85.5,84C 86.6966,86.0153 88.0299,87.8487 89.5,89.5C 90.6841,91.4634 91.5174,93.4634 92,95.5C 89.4383,94.2726 87.2716,92.6059 85.5,90.5C 85.0108,87.5553 83.5108,85.2219 81,83.5C 80.596,74.0879 81.096,64.9212 82.5,56C 81.7538,53.009 82.0871,50.009 83.5,47C 82.9187,43.9798 82.5853,40.9798 82.5,38C 83.2598,36.5589 83.9264,35.0589 84.5,33.5C 84.4398,25.9839 84.4398,18.4839 84.5,11C 85.2444,9.1852 85.9111,7.35187 86.5,5.5C 87.2905,4.59872 88.2905,3.93205 89.5,3.5 Z"/></g>
<g><path style="opacity:0.989" fill="#ff8000" d="M 86.5,5.5 C 85.9111,7.35187 85.2444,9.1852 84.5,11C 84.4398,18.4839 84.4398,25.9839 84.5,33.5C 83.9264,35.0589 83.2598,36.5589 82.5,38C 82.5853,40.9798 82.9187,43.9798 83.5,47C 82.0871,50.009 81.7538,53.009 82.5,56C 81.096,64.9212 80.596,74.0879 81,83.5C 83.5108,85.2219 85.0108,87.5553 85.5,90.5C 84.391,90.4431 83.391,90.1098 82.5,89.5C 78.8885,86.319 75.7218,82.6523 73,78.5C 72.0426,75.6212 72.5426,73.1212 74.5,71C 74.3613,65.0962 74.3613,59.2628 74.5,53.5C 75.5001,46.8635 76.5001,40.0301 77.5,33C 76.8126,30.7683 76.4793,28.6016 76.5,26.5C 77.1667,25.5 77.8333,24.5 78.5,23.5C 78.3467,19.3733 78.0134,15.04 77.5,10.5C 80.2402,8.4405 83.2402,6.77383 86.5,5.5 Z"/></g>
<g><path style="opacity:0.991" fill="#ff5b04" d="M 126.5,8.5 C 128.674,8.74973 130.341,9.74973 131.5,11.5C 131.822,16.1614 132.156,20.828 132.5,25.5C 131.975,26.1924 131.308,26.6924 130.5,27C 131.308,27.3076 131.975,27.8076 132.5,28.5C 131.423,31.015 130.423,33.515 129.5,36C 130.134,38.0745 130.468,40.2412 130.5,42.5C 130.41,44.9637 129.743,47.1303 128.5,49C 129.167,49.3333 129.833,49.6667 130.5,50C 129.167,51 129.167,52 130.5,53C 128.355,54.8175 128.355,56.3175 130.5,57.5C 130.023,58.4776 129.357,59.3109 128.5,60C 127.902,68.6914 127.902,77.0247 128.5,85C 127.643,85.6891 126.977,86.5224 126.5,87.5C 127.807,88.865 127.807,90.1984 126.5,91.5C 124.337,93.0828 122.004,94.4161 119.5,95.5C 118.556,93.2506 118.223,90.7506 118.5,88C 119.328,85.9926 120.328,83.9926 121.5,82C 120.572,81.6121 119.905,80.9454 119.5,80C 120.104,77.4762 120.771,74.9762 121.5,72.5C 121.525,68.5997 121.191,64.5997 120.5,60.5C 121.074,58.9411 121.74,57.4411 122.5,56C 122.167,53 121.833,50 121.5,47C 122.167,46.3333 122.833,45.6667 123.5,45C 123.047,40.1265 122.714,35.2932 122.5,30.5C 123.025,29.8076 123.692,29.3076 124.5,29C 124.292,25.6748 123.959,22.3415 123.5,19C 124.24,17.2151 124.907,15.3817 125.5,13.5C 124.316,11.533 124.649,9.86638 126.5,8.5 Z"/></g>
<g><path style="opacity:0.992" fill="#ff8603" d="M 77.5,10.5 C 78.0134,15.04 78.3467,19.3733 78.5,23.5C 77.8333,24.5 77.1667,25.5 76.5,26.5C 76.4793,28.6016 76.8126,30.7683 77.5,33C 76.5001,40.0301 75.5001,46.8635 74.5,53.5C 74.3613,59.2628 74.3613,65.0962 74.5,71C 72.5426,73.1212 72.0426,75.6212 73,78.5C 75.7218,82.6523 78.8885,86.319 82.5,89.5C 82.6716,90.4916 82.3382,91.1583 81.5,91.5C 78.331,90.0834 75.331,88.4168 72.5,86.5C 71.4097,84.5633 70.0764,82.73 68.5,81C 69.9561,80.5774 70.4561,79.7441 70,78.5C 65.9651,76.0959 65.1318,73.0959 67.5,69.5C 67.2907,68.914 66.9574,68.414 66.5,68C 67.3029,63.5855 67.8029,59.0855 68,54.5C 68.6924,53.9747 69.1924,53.3081 69.5,52.5C 69.7016,49.0375 69.3683,45.8708 68.5,43C 69.1667,42 69.8333,41 70.5,40C 69.7539,37.9068 69.4205,35.9068 69.5,34C 70.1667,32.6667 70.8333,31.3333 71.5,30C 71.1667,27 70.8333,24 70.5,21C 71.8583,19.1684 72.1916,17.3351 71.5,15.5C 72.0253,14.8076 72.6919,14.3076 73.5,14C 73.2716,13.6012 72.9382,13.4346 72.5,13.5C 73.8993,12.1103 75.5659,11.1103 77.5,10.5 Z"/></g>
<g><path style="opacity:0.979" fill="#ff5406" d="M 131.5,11.5 C 135.655,12.7417 139.322,14.7417 142.5,17.5C 141.223,19.1484 140.223,20.9817 139.5,23C 139.821,29.5265 140.154,36.5265 140.5,44C 139.068,49.7648 138.401,55.2648 138.5,60.5C 140.991,61.5407 140.991,62.3741 138.5,63C 138.833,63.3333 139.167,63.6667 139.5,64C 138.422,64.6739 137.755,65.6739 137.5,67C 138.102,73.0855 138.436,78.9189 138.5,84.5C 134.836,87.3346 130.836,89.668 126.5,91.5C 127.807,90.1984 127.807,88.865 126.5,87.5C 126.977,86.5224 127.643,85.6891 128.5,85C 127.902,77.0247 127.902,68.6914 128.5,60C 129.357,59.3109 130.023,58.4776 130.5,57.5C 128.355,56.3175 128.355,54.8175 130.5,53C 129.167,52 129.167,51 130.5,50C 129.833,49.6667 129.167,49.3333 128.5,49C 129.743,47.1303 130.41,44.9637 130.5,42.5C 130.468,40.2412 130.134,38.0745 129.5,36C 130.423,33.515 131.423,31.015 132.5,28.5C 131.975,27.8076 131.308,27.3076 130.5,27C 131.308,26.6924 131.975,26.1924 132.5,25.5C 132.156,20.828 131.822,16.1614 131.5,11.5 Z"/></g>
<g><path style="opacity:0.984" fill="#ff8e01" d="M 72.5,13.5 C 72.9382,13.4346 73.2716,13.6012 73.5,14C 72.6919,14.3076 72.0253,14.8076 71.5,15.5C 72.1916,17.3351 71.8583,19.1684 70.5,21C 70.8333,24 71.1667,27 71.5,30C 70.8333,31.3333 70.1667,32.6667 69.5,34C 69.4205,35.9068 69.7539,37.9068 70.5,40C 69.8333,41 69.1667,42 68.5,43C 69.3683,45.8708 69.7016,49.0375 69.5,52.5C 69.1924,53.3081 68.6924,53.9747 68,54.5C 67.8029,59.0855 67.3029,63.5855 66.5,68C 66.9574,68.414 67.2907,68.914 67.5,69.5C 65.1318,73.0959 65.9651,76.0959 70,78.5C 70.4561,79.7441 69.9561,80.5774 68.5,81C 70.0764,82.73 71.4097,84.5633 72.5,86.5C 68.1362,84.6563 64.1362,82.323 60.5,79.5C 60.5858,78.5041 60.2524,77.6708 59.5,77C 60.3081,76.6924 60.9747,76.1924 61.5,75.5C 59.5879,73.3428 57.9213,71.0094 56.5,68.5C 56.9931,61.4163 57.9931,53.9163 59.5,46C 58.5119,43.5801 58.8452,41.2467 60.5,39C 59.9096,32.5155 59.5763,26.3489 59.5,20.5C 63.701,17.8998 68.0344,15.5665 72.5,13.5 Z"/></g>
<g><path style="opacity:0.988" fill="#ff4e08" d="M 142.5,17.5 C 145.54,18.6803 148.206,20.347 150.5,22.5C 149.668,23.3285 150.001,24.1618 151.5,25C 150.212,27.4665 150.212,29.9665 151.5,32.5C 150.96,33.7481 150.293,34.9148 149.5,36C 149.774,38.9524 150.108,42.2857 150.5,46C 150.097,47.4728 149.43,48.8061 148.5,50C 149.248,57.7883 149.248,65.7883 148.5,74C 148.905,74.9454 149.572,75.6121 150.5,76C 149.748,76.6708 149.414,77.5041 149.5,78.5C 145.993,80.754 142.327,82.754 138.5,84.5C 138.436,78.9189 138.102,73.0855 137.5,67C 137.755,65.6739 138.422,64.6739 139.5,64C 139.167,63.6667 138.833,63.3333 138.5,63C 140.991,62.3741 140.991,61.5407 138.5,60.5C 138.401,55.2648 139.068,49.7648 140.5,44C 140.154,36.5265 139.821,29.5265 139.5,23C 140.223,20.9817 141.223,19.1484 142.5,17.5 Z"/></g>
<g><path style="opacity:0.989" fill="#ff9902" d="M 59.5,20.5 C 59.5763,26.3489 59.9096,32.5155 60.5,39C 58.8452,41.2467 58.5119,43.5801 59.5,46C 57.9931,53.9163 56.9931,61.4163 56.5,68.5C 57.9213,71.0094 59.5879,73.3428 61.5,75.5C 60.9747,76.1924 60.3081,76.6924 59.5,77C 60.2524,77.6708 60.5858,78.5041 60.5,79.5C 58.6316,78.7368 56.9649,77.7368 55.5,76.5C 54.4975,74.9891 53.8308,73.3224 53.5,71.5C 54.0431,71.44 54.3764,71.1067 54.5,70.5C 52.4453,68.4451 50.7787,66.1117 49.5,63.5C 50.5504,57.1449 51.8838,49.9783 53.5,42C 53.3097,36.1848 52.9764,30.3514 52.5,24.5C 54.6705,22.9138 57.0038,21.5804 59.5,20.5 Z"/></g>
<g><path style="opacity:0.978" fill="#ff9f00" d="M 52.5,24.5 C 52.9764,30.3514 53.3097,36.1848 53.5,42C 51.8838,49.9783 50.5504,57.1449 49.5,63.5C 50.7787,66.1117 52.4453,68.4451 54.5,70.5C 54.3764,71.1067 54.0431,71.44 53.5,71.5C 51.9731,71.573 50.9731,70.9063 50.5,69.5C 47.7269,66.2787 44.7269,63.2787 41.5,60.5C 41.9767,59.5224 42.6433,58.6891 43.5,58C 42.1667,57.3333 42.1667,56.6667 43.5,56C 42.8333,55.6667 42.1667,55.3333 41.5,55C 42.065,50.6162 42.065,46.1162 41.5,41.5C 42.0253,40.8076 42.6919,40.3076 43.5,40C 41.1927,38.1724 41.526,36.5057 44.5,35C 43.5,34.6667 42.5,34.3333 41.5,34C 42.7736,33.0228 42.7736,32.1894 41.5,31.5C 44.8763,28.8059 48.543,26.4726 52.5,24.5 Z"/></g>
<g><path style="opacity:0.989" fill="#ffa401" d="M 41.5,31.5 C 42.7736,32.1894 42.7736,33.0228 41.5,34C 42.5,34.3333 43.5,34.6667 44.5,35C 41.526,36.5057 41.1927,38.1724 43.5,40C 42.6919,40.3076 42.0253,40.8076 41.5,41.5C 42.065,46.1162 42.065,50.6162 41.5,55C 42.1667,55.3333 42.8333,55.6667 43.5,56C 42.1667,56.6667 42.1667,57.3333 43.5,58C 42.6433,58.6891 41.9767,59.5224 41.5,60.5C 44.7269,63.2787 47.7269,66.2787 50.5,69.5C 49.1266,69.6567 47.7932,69.49 46.5,69C 36.4329,61.6315 25.7662,55.1315 14.5,49.5C 15.2026,47.2843 16.5359,45.451 18.5,44C 25.9011,39.3003 33.5678,35.1336 41.5,31.5 Z"/></g>
<g><path style="opacity:0.994" fill="#ff430b" d="M 150.5,22.5 C 156.298,25.2326 161.965,28.2326 167.5,31.5C 166.859,32.4822 166.193,33.4822 165.5,34.5C 168.977,36.3371 168.977,38.5038 165.5,41C 166.711,42.1131 166.711,43.2798 165.5,44.5C 166.603,44.9976 167.603,45.3309 168.5,45.5C 167.91,46.7989 166.91,47.6322 165.5,48C 168.078,50.1567 168.078,51.3233 165.5,51.5C 166.09,52.7989 167.09,53.6322 168.5,54C 164.989,55.6364 164.656,56.8031 167.5,57.5C 164.956,58.9374 164.956,60.4374 167.5,62C 166.834,63.6605 166.834,65.4938 167.5,67.5C 161.536,71.1523 155.536,74.819 149.5,78.5C 149.414,77.5041 149.748,76.6708 150.5,76C 149.572,75.6121 148.905,74.9454 148.5,74C 149.248,65.7883 149.248,57.7883 148.5,50C 149.43,48.8061 150.097,47.4728 150.5,46C 150.108,42.2857 149.774,38.9524 149.5,36C 150.293,34.9148 150.96,33.7481 151.5,32.5C 150.212,29.9665 150.212,27.4665 151.5,25C 150.001,24.1618 149.668,23.3285 150.5,22.5 Z"/></g>
<g><path style="opacity:0.994" fill="#ff370e" d="M 167.5,31.5 C 172.701,34.263 177.701,37.263 182.5,40.5C 182.277,57.2136 181.944,73.2136 181.5,88.5C 182.905,88.76 184.238,89.0934 185.5,89.5C 180.335,93.5863 174.668,96.9196 168.5,99.5C 169.144,94.0784 169.478,88.5784 169.5,83C 169.495,77.4543 168.828,72.2876 167.5,67.5C 166.834,65.4938 166.834,63.6605 167.5,62C 164.956,60.4374 164.956,58.9374 167.5,57.5C 164.656,56.8031 164.989,55.6364 168.5,54C 167.09,53.6322 166.09,52.7989 165.5,51.5C 168.078,51.3233 168.078,50.1567 165.5,48C 166.91,47.6322 167.91,46.7989 168.5,45.5C 167.603,45.3309 166.603,44.9976 165.5,44.5C 166.711,43.2798 166.711,42.1131 165.5,41C 168.977,38.5038 168.977,36.3371 165.5,34.5C 166.193,33.4822 166.859,32.4822 167.5,31.5 Z"/></g>
<g><path style="opacity:0.986" fill="#fe2d0f" d="M 182.5,40.5 C 195.206,46.9152 200.206,57.2485 197.5,71.5C 195.563,78.789 191.563,84.789 185.5,89.5C 184.238,89.0934 182.905,88.76 181.5,88.5C 181.944,73.2136 182.277,57.2136 182.5,40.5 Z"/></g>
<g><path style="opacity:0.922" fill="#ffbf54" d="M 12.5,52.5 C 14.7944,55.1758 17.461,57.5091 20.5,59.5C 22.444,60.1892 24.444,60.6892 26.5,61C 25.5842,61.2784 24.9175,61.7784 24.5,62.5C 19.8608,62.8243 16.1941,64.8243 13.5,68.5C 12.1535,70.5368 10.8202,72.5368 9.5,74.5C 9.33385,68.4908 9.50051,62.4908 10,56.5C 10.6082,54.9336 11.4415,53.6002 12.5,52.5 Z"/></g>
<g><path style="opacity:0.998" fill="#ffb63d" d="M 13.5,50.5 C 13.8588,52.371 14.8588,53.871 16.5,55C 19.4245,55.9876 22.4245,56.6543 25.5,57C 27.2666,59.3901 29.5999,61.0568 32.5,62C 32.2716,62.3988 31.9382,62.5654 31.5,62.5C 29.1667,62.5 26.8333,62.5 24.5,62.5C 24.9175,61.7784 25.5842,61.2784 26.5,61C 24.444,60.6892 22.444,60.1892 20.5,59.5C 17.461,57.5091 14.7944,55.1758 12.5,52.5C 12.3284,51.5084 12.6618,50.8417 13.5,50.5 Z"/></g>
<g><path style="opacity:1" fill="#ffae25" d="M 14.5,49.5 C 25.7662,55.1315 36.4329,61.6315 46.5,69C 47.7932,69.49 49.1266,69.6567 50.5,69.5C 50.9731,70.9063 51.9731,71.573 53.5,71.5C 53.8308,73.3224 54.4975,74.9891 55.5,76.5C 49.9647,73.2326 44.2981,70.2326 38.5,67.5C 37.1473,65.2621 35.1473,63.9287 32.5,63.5C 31.8333,63.5 31.5,63.1667 31.5,62.5C 31.9382,62.5654 32.2716,62.3988 32.5,62C 29.5999,61.0568 27.2666,59.3901 25.5,57C 22.4245,56.6543 19.4245,55.9876 16.5,55C 14.8588,53.871 13.8588,52.371 13.5,50.5C 13.5,49.8333 13.8333,49.5 14.5,49.5 Z"/></g>
<g><path style="opacity:0.992" fill="#ff5400" d="M 24.5,62.5 C 26.8333,62.5 29.1667,62.5 31.5,62.5C 31.5,63.1667 31.8333,63.5 32.5,63.5C 30.0314,64.3171 27.3647,64.8171 24.5,65C 23.9415,65.7247 23.6082,66.5581 23.5,67.5C 24.2856,100.715 24.2856,133.381 23.5,165.5C 20.6298,164.567 18.2964,162.9 16.5,160.5C 16.3825,131.392 16.7158,101.892 17.5,72C 17.5897,68.472 16.2564,67.3053 13.5,68.5C 16.1941,64.8243 19.8608,62.8243 24.5,62.5 Z"/></g>
<g><path style="opacity:0.992" fill="#ff5e00" d="M 32.5,63.5 C 35.1473,63.9287 37.1473,65.2621 38.5,67.5C 38.1667,67.5 37.8333,67.5 37.5,67.5C 36.8826,67.3893 36.3826,67.056 36,66.5C 35.8333,67.8333 35.6667,69.1667 35.5,70.5C 35.7727,105.577 35.7727,139.577 35.5,172.5C 31.1362,170.656 27.1362,168.323 23.5,165.5C 24.2856,133.381 24.2856,100.715 23.5,67.5C 23.6082,66.5581 23.9415,65.7247 24.5,65C 27.3647,64.8171 30.0314,64.3171 32.5,63.5 Z"/></g>
<g><path style="opacity:0.963" fill="#ff4e00" d="M 16.5,160.5 C 13.6109,157.744 11.4442,154.411 10,150.5C 9.50003,125.169 9.33336,99.8355 9.5,74.5C 10.8202,72.5368 12.1535,70.5368 13.5,68.5C 16.2564,67.3053 17.5897,68.472 17.5,72C 16.7158,101.892 16.3825,131.392 16.5,160.5 Z"/></g>
<g><path style="opacity:0.983" fill="#ffb000" d="M 197.5,71.5 C 197.667,98.1687 197.5,124.835 197,151.5C 194.985,156.519 191.818,160.685 187.5,164C 181.112,167.524 174.779,171.024 168.5,174.5C 168.542,171.775 169.209,168.942 170.5,166C 169.672,165.085 168.672,164.419 167.5,164C 168.448,163.517 169.448,163.351 170.5,163.5C 170.528,161.418 169.861,159.584 168.5,158C 172.444,157.228 172.444,155.228 168.5,152C 169.308,151.692 169.975,151.192 170.5,150.5C 169.531,146.281 169.197,141.948 169.5,137.5C 169.5,129.167 169.5,120.833 169.5,112.5C 168.948,110.669 168.948,109.003 169.5,107.5C 167.539,106.152 167.372,104.819 169,103.5C 169.451,105.929 170.285,106.096 171.5,104C 170.269,102.595 168.936,101.429 167.5,100.5C 167.5,99.8333 167.833,99.5 168.5,99.5C 174.668,96.9196 180.335,93.5863 185.5,89.5C 191.563,84.789 195.563,78.789 197.5,71.5 Z"/></g>
<g><path style="opacity:0.937" fill="#ff6600" d="M 37.5,67.5 C 37.3335,77.1724 37.5002,86.8391 38,96.5C 39.4514,99.3034 41.6181,101.303 44.5,102.5C 43.9717,103.721 43.305,104.887 42.5,106C 42.5453,109.058 43.2119,112.224 44.5,115.5C 42.5395,113.688 40.2061,112.688 37.5,112.5C 37.3336,120.174 37.5003,127.841 38,135.5C 39.3597,138.023 41.193,140.023 43.5,141.5C 42.8553,153.456 42.8553,165.456 43.5,177.5C 40.7972,175.819 38.1305,174.153 35.5,172.5C 35.7727,139.577 35.7727,105.577 35.5,70.5C 35.6667,69.1667 35.8333,67.8333 36,66.5C 36.3826,67.056 36.8826,67.3893 37.5,67.5 Z"/></g>
<g><path style="opacity:0.842" fill="#ff751b" d="M 82.5,89.5 C 83.391,90.1098 84.391,90.4431 85.5,90.5C 87.2716,92.6059 89.4383,94.2726 92,95.5C 91.5174,93.4634 90.6841,91.4634 89.5,89.5C 90.391,90.1098 91.391,90.4431 92.5,90.5C 96.9449,94.738 100.945,99.4046 104.5,104.5C 96.3388,100.923 88.6722,96.5894 81.5,91.5C 82.3382,91.1583 82.6716,90.4916 82.5,89.5 Z"/></g>
<g><path style="opacity:0.905" fill="#ff7100" d="M 44.5,102.5 C 48.3723,104.597 52.039,106.931 55.5,109.5C 55.0033,111.597 54.67,113.43 54.5,115C 57.0702,116.99 57.0702,118.823 54.5,120.5C 51.1835,118.863 47.8501,117.196 44.5,115.5C 43.2119,112.224 42.5453,109.058 42.5,106C 43.305,104.887 43.9717,103.721 44.5,102.5 Z"/></g>
<g><path style="opacity:0.9" fill="#ff7e00" d="M 55.5,109.5 C 61.165,111.997 66.4984,114.997 71.5,118.5C 70.2749,119.152 69.6083,120.319 69.5,122C 70.6193,124.562 70.6193,127.062 69.5,129.5C 63.9946,127.251 58.9946,124.251 54.5,120.5C 57.0702,118.823 57.0702,116.99 54.5,115C 54.67,113.43 55.0033,111.597 55.5,109.5 Z"/></g>
<g><path style="opacity:0.953" fill="#ff8600" d="M 71.5,118.5 C 73.5,119.5 75.5,120.5 77.5,121.5C 76.8796,124.34 76.2129,127.174 75.5,130C 75.3261,152.588 75.6594,174.754 76.5,196.5C 74.4632,195.154 72.4632,193.82 70.5,192.5C 70.7805,180.855 70.4472,169.521 69.5,158.5C 70.2427,157.818 70.9094,157.151 71.5,156.5C 72.6561,148.677 72.8228,140.677 72,132.5C 70.955,131.627 70.1217,130.627 69.5,129.5C 70.6193,127.062 70.6193,124.562 69.5,122C 69.6083,120.319 70.2749,119.152 71.5,118.5 Z"/></g>
<g><path style="opacity:0.985" fill="#ff8c00" d="M 77.5,121.5 C 79.0009,122.752 80.6675,123.752 82.5,124.5C 82.9617,149.68 82.9617,174.68 82.5,199.5C 80.5,198.5 78.5,197.5 76.5,196.5C 75.6594,174.754 75.3261,152.588 75.5,130C 76.2129,127.174 76.8796,124.34 77.5,121.5 Z"/></g>
<g><path style="opacity:0.986" fill="#ffa500" d="M 131.5,121.5 C 132.237,123.305 133.237,124.971 134.5,126.5C 133.167,127.5 131.833,128.5 130.5,129.5C 131.167,130.5 131.833,131.5 132.5,132.5C 131.975,133.192 131.308,133.692 130.5,134C 134.082,134.595 134.416,135.929 131.5,138C 132.471,139.204 133.471,139.704 134.5,139.5C 133.289,140.72 133.289,141.887 134.5,143C 133.062,143.219 131.729,143.719 130.5,144.5C 131.833,145.5 131.833,146.5 130.5,147.5C 133.26,147.512 133.76,148.845 132,151.5C 131.107,150.289 130.274,150.289 129.5,151.5C 131.385,152.197 131.718,153.197 130.5,154.5C 130.977,155.478 131.643,156.311 132.5,157C 131.446,158.388 131.28,159.888 132,161.5C 132.914,160.346 133.747,160.513 134.5,162C 132.884,162.615 131.551,163.615 130.5,165C 131.711,166.113 131.711,167.28 130.5,168.5C 131.873,170.49 132.873,172.657 133.5,175C 132.531,178.04 131.531,181.04 130.5,184C 133.167,185.333 133.167,186.667 130.5,188C 134.483,187.725 134.483,188.725 130.5,191C 132.095,190.383 133.428,190.716 134.5,192C 132.741,192.98 131.074,193.647 129.5,194C 130.416,194.278 131.082,194.778 131.5,195.5C 125.075,199.93 118.408,203.93 111.5,207.5C 108.833,207.5 106.167,207.5 103.5,207.5C 103.586,206.504 103.252,205.671 102.5,205C 103.167,204.667 103.833,204.333 104.5,204C 103.167,203 103.167,202 104.5,201C 103.833,200.667 103.167,200.333 102.5,200C 103.678,195.31 103.678,190.644 102.5,186C 105.167,185.333 105.167,184.667 102.5,184C 103.725,173.837 103.725,163.67 102.5,153.5C 102.977,152.522 103.643,151.689 104.5,151C 103.345,147.718 102.679,144.552 102.5,141.5C 103.065,139.491 104.065,137.824 105.5,136.5C 113.832,130.998 122.499,125.998 131.5,121.5 Z"/></g>
<g><path style="opacity:0.983" fill="#ff9200" d="M 82.5,124.5 C 85.0472,125.934 87.3805,127.6 89.5,129.5C 89.6445,154.212 89.3112,178.546 88.5,202.5C 86.1815,202.008 84.1815,201.008 82.5,199.5C 82.9617,174.68 82.9617,149.68 82.5,124.5 Z"/></g>
<g><path style="opacity:0.983" fill="#ff9900" d="M 89.5,129.5 C 92.395,130.399 95.0616,131.733 97.5,133.5C 95.0688,135.068 95.0688,136.568 97.5,138C 95.6878,141.209 95.6878,144.209 97.5,147C 97.1805,151.177 96.5138,155.51 95.5,160C 96.2931,161.085 96.9598,162.252 97.5,163.5C 97.2549,165.922 97.2549,168.255 97.5,170.5C 95.4787,173.86 95.4787,177.026 97.5,180C 96.8333,183.333 96.1667,186.667 95.5,190C 96.1667,190.667 96.8333,191.333 97.5,192C 96.1667,194.667 96.1667,197.333 97.5,200C 94.8333,202 94.8333,204 97.5,206C 97.2716,206.399 96.9382,206.565 96.5,206.5C 93.2459,206.206 90.5792,204.873 88.5,202.5C 89.3112,178.546 89.6445,154.212 89.5,129.5 Z"/></g>
<g><path style="opacity:0.987" fill="#ff9f00" d="M 97.5,133.5 C 99.9535,135.06 102.62,136.06 105.5,136.5C 104.065,137.824 103.065,139.491 102.5,141.5C 102.679,144.552 103.345,147.718 104.5,151C 103.643,151.689 102.977,152.522 102.5,153.5C 103.725,163.67 103.725,173.837 102.5,184C 105.167,184.667 105.167,185.333 102.5,186C 103.678,190.644 103.678,195.31 102.5,200C 103.167,200.333 103.833,200.667 104.5,201C 103.167,202 103.167,203 104.5,204C 103.833,204.333 103.167,204.667 102.5,205C 103.252,205.671 103.586,206.504 103.5,207.5C 101.167,207.5 98.8333,207.5 96.5,207.5C 96.5,207.167 96.5,206.833 96.5,206.5C 96.9382,206.565 97.2716,206.399 97.5,206C 94.8333,204 94.8333,202 97.5,200C 96.1667,197.333 96.1667,194.667 97.5,192C 96.8333,191.333 96.1667,190.667 95.5,190C 96.1667,186.667 96.8333,183.333 97.5,180C 95.4787,177.026 95.4787,173.86 97.5,170.5C 97.2549,168.255 97.2549,165.922 97.5,163.5C 96.9598,162.252 96.2931,161.085 95.5,160C 96.5138,155.51 97.1805,151.177 97.5,147C 95.6878,144.209 95.6878,141.209 97.5,138C 95.0688,136.568 95.0688,135.068 97.5,133.5 Z"/></g>
<g><path style="opacity:0.97" fill="#ffab00" d="M 167.5,100.5 C 168.936,101.429 170.269,102.595 171.5,104C 170.285,106.096 169.451,105.929 169,103.5C 167.372,104.819 167.539,106.152 169.5,107.5C 168.948,109.003 168.948,110.669 169.5,112.5C 158.065,118.052 147.065,124.385 136.5,131.5C 135.53,139.778 135.197,148.111 135.5,156.5C 147.086,150.705 158.419,144.372 169.5,137.5C 169.197,141.948 169.531,146.281 170.5,150.5C 169.975,151.192 169.308,151.692 168.5,152C 172.444,155.228 172.444,157.228 168.5,158C 169.861,159.584 170.528,161.418 170.5,163.5C 169.448,163.351 168.448,163.517 167.5,164C 168.672,164.419 169.672,165.085 170.5,166C 169.209,168.942 168.542,171.775 168.5,174.5C 156.428,181.892 144.095,188.892 131.5,195.5C 131.082,194.778 130.416,194.278 129.5,194C 131.074,193.647 132.741,192.98 134.5,192C 133.428,190.716 132.095,190.383 130.5,191C 134.483,188.725 134.483,187.725 130.5,188C 133.167,186.667 133.167,185.333 130.5,184C 131.531,181.04 132.531,178.04 133.5,175C 132.873,172.657 131.873,170.49 130.5,168.5C 131.711,167.28 131.711,166.113 130.5,165C 131.551,163.615 132.884,162.615 134.5,162C 133.747,160.513 132.914,160.346 132,161.5C 131.28,159.888 131.446,158.388 132.5,157C 131.643,156.311 130.977,155.478 130.5,154.5C 131.718,153.197 131.385,152.197 129.5,151.5C 130.274,150.289 131.107,150.289 132,151.5C 133.76,148.845 133.26,147.512 130.5,147.5C 131.833,146.5 131.833,145.5 130.5,144.5C 131.729,143.719 133.062,143.219 134.5,143C 133.289,141.887 133.289,140.72 134.5,139.5C 133.471,139.704 132.471,139.204 131.5,138C 134.416,135.929 134.082,134.595 130.5,134C 131.308,133.692 131.975,133.192 132.5,132.5C 131.833,131.5 131.167,130.5 130.5,129.5C 131.833,128.5 133.167,127.5 134.5,126.5C 133.237,124.971 132.237,123.305 131.5,121.5C 143.164,113.999 155.164,106.999 167.5,100.5 Z"/></g>
<g><path style="opacity:0.971" fill="#ff7100" d="M 43.5,141.5 C 47.8362,143.332 51.8362,145.665 55.5,148.5C 55.67,149.822 55.3366,150.989 54.5,152C 55.1667,152.333 55.8333,152.667 56.5,153C 55.4317,156.06 55.4317,159.393 56.5,163C 53.8333,163.667 53.8333,164.333 56.5,165C 55.6885,169.495 55.6885,173.829 56.5,178C 55.6433,178.689 54.9767,179.522 54.5,180.5C 55.7914,181.527 55.7914,182.527 54.5,183.5C 50.6733,181.754 47.0066,179.754 43.5,177.5C 42.8553,165.456 42.8553,153.456 43.5,141.5 Z"/></g>
<g><path style="opacity:0.964" fill="#ff7e00" d="M 55.5,148.5 C 60.8333,151.167 66.1667,153.833 71.5,156.5C 70.9094,157.151 70.2427,157.818 69.5,158.5C 70.4472,169.521 70.7805,180.855 70.5,192.5C 65.1837,189.528 59.8504,186.528 54.5,183.5C 55.7914,182.527 55.7914,181.527 54.5,180.5C 54.9767,179.522 55.6433,178.689 56.5,178C 55.6885,173.829 55.6885,169.495 56.5,165C 53.8333,164.333 53.8333,163.667 56.5,163C 55.4317,159.393 55.4317,156.06 56.5,153C 55.8333,152.667 55.1667,152.333 54.5,152C 55.3366,150.989 55.67,149.822 55.5,148.5 Z"/></g>
</svg>
