<?xml version="1.0" encoding="UTF-8"?>
<!DOCTYPE svg PUBLIC "-//W3C//DTD SVG 1.1//EN" "http://www.w3.org/Graphics/SVG/1.1/DTD/svg11.dtd">
<svg xmlns="http://www.w3.org/2000/svg" version="1.1" width="208px" height="208px" style="shape-rendering:geometricPrecision; text-rendering:geometricPrecision; image-rendering:optimizeQuality; fill-rule:evenodd; clip-rule:evenodd" xmlns:xlink="http://www.w3.org/1999/xlink">
<g><path style="opacity:0.996" fill="#001733" d="M 28.5,3.5 C 78.8344,3.33334 129.168,3.50001 179.5,4C 193,8.16667 201.833,17 206,30.5C 206.667,79.5 206.667,128.5 206,177.5C 202.354,189.815 194.52,198.315 182.5,203C 130.167,203.667 77.8333,203.667 25.5,203C 12.4979,198.664 4.33119,189.83 1,176.5C 0.333333,128.167 0.333333,79.8333 1,31.5C 5.02467,16.9763 14.1913,7.64298 28.5,3.5 Z"/></g>
<g><path style="opacity:1" fill="#049edc" d="M 84.5,55.5 C 72.6783,56.4951 60.6783,56.8284 48.5,56.5C 48.5,86.1667 48.5,115.833 48.5,145.5C 47.1673,130.849 46.5006,115.849 46.5,100.5C 46.6667,85.5 46.8333,70.5 47,55.5C 59.4999,54.1759 71.9999,54.1759 84.5,55.5 Z"/></g>
<g><path style="opacity:1" fill="#00aafe" d="M 84.5,55.5 C 85.791,55.2627 86.791,55.596 87.5,56.5C 86.7611,56.369 86.0944,56.5357 85.5,57C 99.2503,59.0847 107.417,66.9181 110,80.5C 110.122,85.6913 110.289,90.6913 110.5,95.5C 104.891,109.984 94.2242,116.984 78.5,116.5C 74.1667,116.5 69.8333,116.5 65.5,116.5C 65.5,125.833 65.5,135.167 65.5,144.5C 60.0247,145.489 54.358,145.822 48.5,145.5C 48.5,115.833 48.5,86.1667 48.5,56.5C 60.6783,56.8284 72.6783,56.4951 84.5,55.5 Z"/></g>
<g><path style="opacity:1" fill="#011731" d="M 65.5,71.5 C 73.5146,70.708 81.1813,71.8747 88.5,75C 91.8575,77.6926 93.1908,81.1926 92.5,85.5C 92.1699,94.333 87.5032,99.1663 78.5,100C 74.1794,100.499 69.8461,100.666 65.5,100.5C 65.5,90.8333 65.5,81.1667 65.5,71.5 Z"/></g>
<g><path style="opacity:1" fill="#00a9fa" d="M 164.5,78.5 C 165.724,83.4418 165.724,88.7751 164.5,94.5C 157.043,91.8619 149.376,91.0285 141.5,92C 139.604,93.8083 139.104,95.975 140,98.5C 143.431,100.796 146.931,102.796 150.5,104.5C 154.267,106.758 158.601,109.258 163.5,112C 166.231,114.626 168.064,117.793 169,121.5C 169.483,120.552 169.649,119.552 169.5,118.5C 173.078,132.17 168.078,141.337 154.5,146C 144.538,148.355 134.871,147.855 125.5,144.5C 126.239,144.631 126.906,144.464 127.5,144C 126.128,143.598 124.795,143.098 123.5,142.5C 122.167,137.833 122.167,133.167 123.5,128.5C 124.833,129.167 126.167,129.833 127.5,130.5C 128.107,130.376 128.44,130.043 128.5,129.5C 135.785,131.843 143.119,132.009 150.5,130C 151.982,127.408 151.648,125.075 149.5,123C 140.352,120.178 132.186,115.678 125,109.5C 116.67,92.3177 121.837,81.151 140.5,76C 144.833,75.3333 149.167,75.3333 153.5,76C 157.465,76.1077 161.132,76.941 164.5,78.5 Z"/></g>
<g><path style="opacity:1" fill="#05a3df" d="M 164.5,78.5 C 165.496,78.4142 166.329,78.7476 167,79.5C 167.499,84.8229 167.666,90.1563 167.5,95.5C 166.209,95.7373 165.209,95.404 164.5,94.5C 165.724,88.7751 165.724,83.4418 164.5,78.5 Z"/></g>
<g><path style="opacity:1" fill="#03aaef" d="M 87.5,56.5 C 99.0334,58.1951 106.867,64.5284 111,75.5C 111.792,82.2474 111.626,88.9141 110.5,95.5C 110.289,90.6913 110.122,85.6913 110,80.5C 107.417,66.9181 99.2503,59.0847 85.5,57C 86.0944,56.5357 86.7611,56.369 87.5,56.5 Z"/></g>
<g><path style="opacity:1" fill="#03abe9" d="M 150.5,104.5 C 159.178,106.202 165.511,110.869 169.5,118.5C 169.649,119.552 169.483,120.552 169,121.5C 168.064,117.793 166.231,114.626 163.5,112C 158.601,109.258 154.267,106.758 150.5,104.5 Z"/></g>
<g><path style="opacity:1" fill="#00365e" d="M 78.5,116.5 C 78.5,116.833 78.5,117.167 78.5,117.5C 74.5,117.5 70.5,117.5 66.5,117.5C 66.5,126.5 66.5,135.5 66.5,144.5C 66.1667,144.5 65.8333,144.5 65.5,144.5C 65.5,135.167 65.5,125.833 65.5,116.5C 69.8333,116.5 74.1667,116.5 78.5,116.5 Z"/></g>
<g><path style="opacity:1" fill="#000415" d="M 78.5,117.5 C 75.6155,118.503 71.9489,118.836 67.5,118.5C 67.8264,127.349 67.493,136.016 66.5,144.5C 66.5,135.5 66.5,126.5 66.5,117.5C 70.5,117.5 74.5,117.5 78.5,117.5 Z"/></g>
<g><path style="opacity:1" fill="#0068a5" d="M 122.5,126.5 C 121.511,131.975 121.178,137.642 121.5,143.5C 120.183,137.654 120.183,131.654 121.5,125.5C 122.107,125.624 122.44,125.957 122.5,126.5 Z"/></g>
<g><path style="opacity:1" fill="#02b9f7" d="M 122.5,126.5 C 124.5,127.5 126.5,128.5 128.5,129.5C 128.44,130.043 128.107,130.376 127.5,130.5C 126.167,129.833 124.833,129.167 123.5,128.5C 122.167,133.167 122.167,137.833 123.5,142.5C 124.795,143.098 126.128,143.598 127.5,144C 126.906,144.464 126.239,144.631 125.5,144.5C 124.041,144.567 122.708,144.234 121.5,143.5C 121.178,137.642 121.511,131.975 122.5,126.5 Z"/></g>
</svg>
