<?xml version="1.0" encoding="UTF-8"?>
<!DOCTYPE svg PUBLIC "-//W3C//DTD SVG 1.1//EN" "http://www.w3.org/Graphics/SVG/1.1/DTD/svg11.dtd">
<svg xmlns="http://www.w3.org/2000/svg" version="1.1" width="208px" height="208px" style="shape-rendering:geometricPrecision; text-rendering:geometricPrecision; image-rendering:optimizeQuality; fill-rule:evenodd; clip-rule:evenodd" xmlns:xlink="http://www.w3.org/1999/xlink">
<g><path style="opacity:1" fill="#433774" d="M 32.5,2.5 C 79.8333,1.16667 127.167,1.16667 174.5,2.5C 127.167,3.83333 79.8333,3.83333 32.5,2.5 Z"/></g>
<g><path style="opacity:1" fill="#01005f" d="M 32.5,2.5 C 79.8333,3.83333 127.167,3.83333 174.5,2.5C 174.833,2.5 175.167,2.5 175.5,2.5C 175.611,3.11742 175.944,3.61742 176.5,4C 178.81,4.49665 181.143,4.66331 183.5,4.5C 192.772,8.1059 199.439,14.4392 203.5,23.5C 203.678,26.2165 204.178,28.8832 205,31.5C 205.5,79.4988 205.667,127.499 205.5,175.5C 204.539,177.265 204.205,179.265 204.5,181.5C 203.921,184.331 202.588,186.664 200.5,188.5C 198.088,188.694 197.088,190.027 197.5,192.5C 197.5,193.167 197.167,193.5 196.5,193.5C 193.931,193.738 192.265,195.071 191.5,197.5C 187.786,200.69 183.453,202.857 178.5,204C 128.5,204.667 78.5,204.667 28.5,204C 23.5469,202.857 19.2136,200.69 15.5,197.5C 15.0269,196.094 14.0269,195.427 12.5,195.5C 7.69715,191.899 4.36382,187.232 2.5,181.5C 2.79472,179.265 2.46138,177.265 1.5,175.5C 1.16673,126.829 1.50006,78.1621 2.5,29.5C 3.59755,25.6395 4.43089,25.6395 5,29.5C 8.40457,26.4958 8.90457,23.1625 6.5,19.5C 7.12723,18.5832 7.46056,17.5832 7.5,16.5C 13.6168,7.94011 21.9501,3.27345 32.5,2.5 Z"/></g>
<g><path style="opacity:1" fill="#554c81" d="M 175.5,2.5 C 178.495,2.29379 181.162,2.96046 183.5,4.5C 181.143,4.66331 178.81,4.49665 176.5,4C 175.944,3.61742 175.611,3.11742 175.5,2.5 Z"/></g>
<g><path style="opacity:1" fill="#2d2368" d="M 203.5,23.5 C 205.224,26.3448 206.558,29.3448 207.5,32.5C 207.5,79.8333 207.5,127.167 207.5,174.5C 206.833,174.5 206.5,174.833 206.5,175.5C 206.167,175.5 205.833,175.5 205.5,175.5C 205.667,127.499 205.5,79.4988 205,31.5C 204.178,28.8832 203.678,26.2165 203.5,23.5 Z"/></g>
<g><path style="opacity:1" fill="#2d2468" d="M 7.5,16.5 C 7.46056,17.5832 7.12723,18.5832 6.5,19.5C 8.90457,23.1625 8.40457,26.4958 5,29.5C 4.43089,25.6395 3.59755,25.6395 2.5,29.5C 1.50006,78.1621 1.16673,126.829 1.5,175.5C 1.16667,175.5 0.833333,175.5 0.5,175.5C 0.67158,174.508 0.338246,173.842 -0.5,173.5C -0.5,126.5 -0.5,79.5 -0.5,32.5C 1.09136,26.6506 3.75802,21.3173 7.5,16.5 Z"/></g>
<g><path style="opacity:1" fill="#9a98fc" d="M 49.5,53.5 C 61.8378,53.3335 74.1712,53.5001 86.5,54C 108.544,58.9332 117.378,72.4332 113,94.5C 109.214,105.952 101.381,112.785 89.5,115C 82.2141,116.186 74.8807,116.686 67.5,116.5C 67.5,126.167 67.5,135.833 67.5,145.5C 61.5,145.5 55.5,145.5 49.5,145.5C 49.5,114.833 49.5,84.1667 49.5,53.5 Z"/></g>
<g><path style="opacity:1" fill="#040362" d="M 67.5,70.5 C 74.7215,69.8861 81.7215,70.7195 88.5,73C 95.6503,77.7964 97.4836,84.2964 94,92.5C 91.2391,96.5341 87.4058,98.7007 82.5,99C 77.5111,99.4993 72.5111,99.6659 67.5,99.5C 67.5,89.8333 67.5,80.1667 67.5,70.5 Z"/></g>
<g><path style="opacity:1" fill="#9a98fc" d="M 159.5,74.5 C 162.5,74.5 165.5,74.5 168.5,74.5C 168.5,80.8333 168.5,87.1667 168.5,93.5C 160.134,92.4656 152.634,94.4656 146,99.5C 145.5,114.83 145.333,130.163 145.5,145.5C 139.167,145.5 132.833,145.5 126.5,145.5C 126.782,122.145 126.448,98.8114 125.5,75.5C 131.176,75.3339 136.843,75.5006 142.5,76C 143.834,78.6604 144.668,81.4937 145,84.5C 149.325,80.2683 154.158,76.9349 159.5,74.5 Z"/></g>
<g><path style="opacity:1" fill="#554c80" d="M 0.5,175.5 C 0.833333,175.5 1.16667,175.5 1.5,175.5C 2.46138,177.265 2.79472,179.265 2.5,181.5C 1.26162,179.786 0.594955,177.786 0.5,175.5 Z"/></g>
<g><path style="opacity:1" fill="#51497b" d="M 205.5,175.5 C 205.833,175.5 206.167,175.5 206.5,175.5C 206.405,177.786 205.738,179.786 204.5,181.5C 204.205,179.265 204.539,177.265 205.5,175.5 Z"/></g>
<g><path style="opacity:0.749" fill="#4f467c" d="M 200.5,188.5 C 200.262,190.404 199.262,191.738 197.5,192.5C 197.088,190.027 198.088,188.694 200.5,188.5 Z"/></g>
<g><path style="opacity:0.773" fill="#635d8e" d="M 12.5,195.5 C 14.0269,195.427 15.0269,196.094 15.5,197.5C 13.9731,197.573 12.9731,196.906 12.5,195.5 Z"/></g>
<g><path style="opacity:0.788" fill="#453b75" d="M 196.5,193.5 C 195.415,195.587 193.749,196.92 191.5,197.5C 192.265,195.071 193.931,193.738 196.5,193.5 Z"/></g>
</svg>
