<?xml version="1.0" encoding="UTF-8"?>
<!DOCTYPE svg PUBLIC "-//W3C//DTD SVG 1.1//EN" "http://www.w3.org/Graphics/SVG/1.1/DTD/svg11.dtd">
<svg xmlns="http://www.w3.org/2000/svg" version="1.1" width="208px" height="208px" style="shape-rendering:geometricPrecision; text-rendering:geometricPrecision; image-rendering:optimizeQuality; fill-rule:evenodd; clip-rule:evenodd" xmlns:xlink="http://www.w3.org/1999/xlink">
<g><path style="opacity:0.857" fill="#fbfdfe" d="M 86.5,-0.5 C 97.5,-0.5 108.5,-0.5 119.5,-0.5C 159.12,7.27252 186.62,29.9392 202,67.5C 203.979,73.9212 205.812,80.2545 207.5,86.5C 207.5,97.5 207.5,108.5 207.5,119.5C 199.727,159.12 177.061,186.62 139.5,202C 133.004,203.703 126.671,205.536 120.5,207.5C 109.5,207.5 98.5,207.5 87.5,207.5C 47.8798,199.727 20.3798,177.061 5,139.5C 3.021,133.079 1.18767,126.745 -0.5,120.5C -0.5,109.5 -0.5,98.5 -0.5,87.5C 7.27252,47.8798 29.9392,20.3798 67.5,5C 73.9962,3.2972 80.3295,1.46386 86.5,-0.5 Z"/></g>
<g><path style="opacity:1" fill="#049fe2" d="M 113.5,4.5 C 115.415,4.21552 117.081,4.54885 118.5,5.5C 119.209,6.40397 120.209,6.73731 121.5,6.5C 121.741,9.99899 120.908,10.3323 119,7.5C 114.917,14.2779 109.583,19.9446 103,24.5C 101.887,25.7604 101.72,26.927 102.5,28C 98.4266,28.3591 96.0933,30.5258 95.5,34.5C 94.914,34.2907 94.414,33.9574 94,33.5C 93.6541,35.8477 92.4875,37.6811 90.5,39C 91.1667,39.3333 91.8333,39.6667 92.5,40C 91.2625,40.2321 90.2625,40.7321 89.5,41.5C 62.8813,49.1192 46.548,66.4526 40.5,93.5C 39.5489,94.9187 39.2155,96.5853 39.5,98.5C 38.7761,95.9174 37.9428,93.2507 37,90.5C 35.7181,94.758 32.5514,97.5913 27.5,99C 28.8692,101.239 28.3692,103.073 26,104.5C 25.6667,103.833 25.3333,103.167 25,102.5C 24,103.833 23,105.167 22,106.5C 21.6667,106.167 21.3333,105.833 21,105.5C 19.5867,109.288 16.7534,112.455 12.5,115C 13.4581,116.147 13.1247,117.147 11.5,118C 8.97457,118.424 6.97457,119.59 5.5,121.5C 4.73465,118.904 4.40132,116.237 4.5,113.5C 3.94975,106.81 6.28309,101.31 11.5,97C 11.1667,96.6667 10.8333,96.3333 10.5,96C 12.3073,94.3977 14.3073,93.0644 16.5,92C 18.3939,90.8989 19.0606,89.5655 18.5,88C 21.7508,86.9023 24.4175,84.9023 26.5,82C 26.1667,81.6667 25.8333,81.3333 25.5,81C 26.6776,80.0331 28.011,79.5331 29.5,79.5C 30.2298,78.0663 31.2298,76.8996 32.5,76C 32.1667,75.6667 31.8333,75.3333 31.5,75C 32.8333,74.6667 34.1667,74.3333 35.5,74C 35.5123,72.1602 36.3456,70.3269 38,68.5C 38.3333,69.1667 38.6667,69.8333 39,70.5C 41,67.8333 43,65.1667 45,62.5C 48.6815,59.09 52.8482,55.4234 57.5,51.5C 57.2907,50.914 56.9574,50.414 56.5,50C 59.0707,49.0991 61.404,47.7658 63.5,46C 62.8333,45.6667 62.1667,45.3333 61.5,45C 65.3639,43.1071 69.5305,39.9404 74,35.5C 75.113,34.2396 75.2797,33.073 74.5,32C 78.0946,31.4439 79.5946,29.6106 79,26.5C 79.414,26.9574 79.914,27.2907 80.5,27.5C 82.5241,25.6419 84.6908,23.9752 87,22.5C 88.6722,19.3441 90.5055,16.3441 92.5,13.5C 93.552,13.6495 94.552,13.4828 95.5,13C 97.9015,10.7348 100.235,8.40148 102.5,6C 106.356,5.8227 110.023,5.3227 113.5,4.5 Z"/></g>
<g><path style="opacity:1" fill="#0599e0" d="M 113.5,4.5 C 110.023,5.3227 106.356,5.8227 102.5,6C 100.235,8.40148 97.9015,10.7348 95.5,13C 94.552,13.4828 93.552,13.6495 92.5,13.5C 90.5055,16.3441 88.6722,19.3441 87,22.5C 84.6908,23.9752 82.5241,25.6419 80.5,27.5C 79.914,27.2907 79.414,26.9574 79,26.5C 79.5946,29.6106 78.0946,31.4439 74.5,32C 75.2797,33.073 75.113,34.2396 74,35.5C 69.5305,39.9404 65.3639,43.1071 61.5,45C 62.1667,45.3333 62.8333,45.6667 63.5,46C 61.404,47.7658 59.0707,49.0991 56.5,50C 56.9574,50.414 57.2907,50.914 57.5,51.5C 52.8482,55.4234 48.6815,59.09 45,62.5C 43,65.1667 41,67.8333 39,70.5C 38.6667,69.8333 38.3333,69.1667 38,68.5C 36.3456,70.3269 35.5123,72.1602 35.5,74C 34.1667,74.3333 32.8333,74.6667 31.5,75C 31.8333,75.3333 32.1667,75.6667 32.5,76C 31.2298,76.8996 30.2298,78.0663 29.5,79.5C 28.011,79.5331 26.6776,80.0331 25.5,81C 25.8333,81.3333 26.1667,81.6667 26.5,82C 24.4175,84.9023 21.7508,86.9023 18.5,88C 19.0606,89.5655 18.3939,90.8989 16.5,92C 14.3073,93.0644 12.3073,94.3977 10.5,96C 10.8333,96.3333 11.1667,96.6667 11.5,97C 6.28309,101.31 3.94975,106.81 4.5,113.5C 2.30265,98.7437 3.96931,84.4104 9.5,70.5C 10.8221,70.33 11.9887,70.6634 13,71.5C 13.9794,69.6797 15.4794,68.513 17.5,68C 17.0426,67.586 16.7093,67.086 16.5,66.5C 18.0284,65.1387 19.6951,63.972 21.5,63C 21.1667,62.6667 20.8333,62.3333 20.5,62C 21.5,61.6667 22.5,61.3333 23.5,61C 23.9302,60.0805 24.2635,59.2472 24.5,58.5C 25.086,58.7093 25.586,59.0426 26,59.5C 26.8141,57.7183 27.9808,56.2183 29.5,55C 29.1667,54.6667 28.8333,54.3333 28.5,54C 31.7838,51.2521 35.4505,48.5855 39.5,46C 36.9722,45.3311 36.9722,44.4978 39.5,43.5C 40.086,43.7093 40.586,44.0426 41,44.5C 42.1708,42.4105 43.5041,40.4105 45,38.5C 45.6667,37.1667 46.3333,37.1667 47,38.5C 47.6449,37.354 48.4783,36.354 49.5,35.5C 49.2907,34.914 48.9574,34.414 48.5,34C 49.8333,33.3333 51.1667,32.6667 52.5,32C 55.2113,29.3269 57.378,26.4935 59,23.5C 59.3333,23.8333 59.6667,24.1667 60,24.5C 61,23.1667 62,21.8333 63,20.5C 63.3333,20.8333 63.6667,21.1667 64,21.5C 65.7398,20.2842 66.7398,18.6175 67,16.5C 67.3333,16.8333 67.6667,17.1667 68,17.5C 69.0645,14.8482 70.8978,13.0148 73.5,12C 72.6598,10.3335 73.1598,10.1669 75,11.5C 76.008,9.74096 77.508,8.57429 79.5,8C 78.552,7.51722 77.552,7.35055 76.5,7.5C 88.4913,3.6138 100.825,2.6138 113.5,4.5 Z"/></g>
<g><path style="opacity:1" fill="#0894dd" d="M 76.5,7.5 C 77.552,7.35055 78.552,7.51722 79.5,8C 77.508,8.57429 76.008,9.74096 75,11.5C 73.1598,10.1669 72.6598,10.3335 73.5,12C 70.8978,13.0148 69.0645,14.8482 68,17.5C 67.6667,17.1667 67.3333,16.8333 67,16.5C 66.7398,18.6175 65.7398,20.2842 64,21.5C 63.6667,21.1667 63.3333,20.8333 63,20.5C 62,21.8333 61,23.1667 60,24.5C 59.6667,24.1667 59.3333,23.8333 59,23.5C 57.378,26.4935 55.2113,29.3269 52.5,32C 51.1667,32.6667 49.8333,33.3333 48.5,34C 48.9574,34.414 49.2907,34.914 49.5,35.5C 48.4783,36.354 47.6449,37.354 47,38.5C 46.3333,37.1667 45.6667,37.1667 45,38.5C 43.5041,40.4105 42.1708,42.4105 41,44.5C 40.586,44.0426 40.086,43.7093 39.5,43.5C 36.9722,44.4978 36.9722,45.3311 39.5,46C 35.4505,48.5855 31.7838,51.2521 28.5,54C 28.8333,54.3333 29.1667,54.6667 29.5,55C 27.9808,56.2183 26.8141,57.7183 26,59.5C 25.586,59.0426 25.086,58.7093 24.5,58.5C 24.2635,59.2472 23.9302,60.0805 23.5,61C 22.5,61.3333 21.5,61.6667 20.5,62C 20.8333,62.3333 21.1667,62.6667 21.5,63C 19.6951,63.972 18.0284,65.1387 16.5,66.5C 16.7093,67.086 17.0426,67.586 17.5,68C 15.4794,68.513 13.9794,69.6797 13,71.5C 11.9887,70.6634 10.8221,70.33 9.5,70.5C 21.1596,38.1745 43.4929,17.1745 76.5,7.5 Z"/></g>
<g><path style="opacity:1" fill="#05a6e5" d="M 118.5,5.5 C 125.649,5.65826 132.316,7.32492 138.5,10.5C 137.027,11.0715 135.36,11.0715 133.5,10.5C 133.881,12.9418 133.214,13.6085 131.5,12.5C 128.539,13.1831 128.205,14.0164 130.5,15C 128.114,15.2835 127.448,16.2835 128.5,18C 127.234,18.3095 126.067,18.8095 125,19.5C 124.529,21.2464 123.862,22.913 123,24.5C 122.667,24.1667 122.333,23.8333 122,23.5C 119.788,27.2045 116.622,29.8712 112.5,31.5C 112.706,33.6102 111.873,35.6102 110,37.5C 109.667,37.1667 109.333,36.8333 109,36.5C 108,38.1667 107,39.8333 106,41.5C 104.129,40.3322 102.629,40.8322 101.5,43C 101.957,43.414 102.291,43.914 102.5,44.5C 100.167,47.4199 97.3334,49.7532 94,51.5C 91.5288,54.3079 89.0288,57.1412 86.5,60C 87.3402,61.6665 86.8402,61.8331 85,60.5C 82.9045,61.7155 83.0712,62.5488 85.5,63C 84.2341,63.3095 83.0674,63.8095 82,64.5C 81.502,61.5184 81.3354,58.5184 81.5,55.5C 83.2383,49.8727 86.5716,45.3727 91.5,42C 90.9056,41.5357 90.2389,41.369 89.5,41.5C 90.2625,40.7321 91.2625,40.2321 92.5,40C 91.8333,39.6667 91.1667,39.3333 90.5,39C 92.4875,37.6811 93.6541,35.8477 94,33.5C 94.414,33.9574 94.914,34.2907 95.5,34.5C 96.0933,30.5258 98.4266,28.3591 102.5,28C 101.72,26.927 101.887,25.7604 103,24.5C 109.583,19.9446 114.917,14.2779 119,7.5C 120.908,10.3323 121.741,9.99899 121.5,6.5C 120.209,6.73731 119.209,6.40397 118.5,5.5 Z"/></g>
<g><path style="opacity:1" fill="#01ace7" d="M 138.5,10.5 C 142.052,11.2759 145.386,12.6092 148.5,14.5C 148.5,16.1667 148.5,17.8333 148.5,19.5C 147.448,19.3505 146.448,19.5172 145.5,20C 146.258,21.3639 145.758,22.5305 144,23.5C 142.16,22.1669 141.66,22.3335 142.5,24C 137.219,28.0214 133.385,32.5214 131,37.5C 129.16,36.1669 128.66,36.3335 129.5,38C 128,39.5 126.5,41 125,42.5C 124.586,42.0426 124.086,41.7093 123.5,41.5C 122.289,42.2739 122.289,43.1072 123.5,44C 122.167,44.6667 120.833,45.3333 119.5,46C 118.429,49.15 116.262,51.9833 113,54.5C 111.442,53.6548 110.442,54.3215 110,56.5C 108.334,55.6598 108.167,56.1598 109.5,58C 107.36,58.9733 105.693,60.4733 104.5,62.5C 103.28,63.7111 102.113,63.7111 101,62.5C 100.383,63.4491 100.549,64.2825 101.5,65C 99.0159,66.6534 97.0159,68.82 95.5,71.5C 94.549,70.6744 93.549,70.5078 92.5,71C 92.8333,71.3333 93.1667,71.6667 93.5,72C 92.1068,73.1711 91.2735,74.6711 91,76.5C 90.8288,84.0115 90.3288,91.3448 89.5,98.5C 89.8319,88.4778 89.4985,78.4778 88.5,68.5C 87.8933,68.6236 87.56,68.9569 87.5,69.5C 84.1922,70.0262 82.0255,68.6928 81,65.5C 80.1925,61.9733 80.3592,58.6399 81.5,55.5C 81.3354,58.5184 81.502,61.5184 82,64.5C 83.0674,63.8095 84.2341,63.3095 85.5,63C 83.0712,62.5488 82.9045,61.7155 85,60.5C 86.8402,61.8331 87.3402,61.6665 86.5,60C 89.0288,57.1412 91.5288,54.3079 94,51.5C 97.3334,49.7532 100.167,47.4199 102.5,44.5C 102.291,43.914 101.957,43.414 101.5,43C 102.629,40.8322 104.129,40.3322 106,41.5C 107,39.8333 108,38.1667 109,36.5C 109.333,36.8333 109.667,37.1667 110,37.5C 111.873,35.6102 112.706,33.6102 112.5,31.5C 116.622,29.8712 119.788,27.2045 122,23.5C 122.333,23.8333 122.667,24.1667 123,24.5C 123.862,22.913 124.529,21.2464 125,19.5C 126.067,18.8095 127.234,18.3095 128.5,18C 127.448,16.2835 128.114,15.2835 130.5,15C 128.205,14.0164 128.539,13.1831 131.5,12.5C 133.214,13.6085 133.881,12.9418 133.5,10.5C 135.36,11.0715 137.027,11.0715 138.5,10.5 Z"/></g>
<g><path style="opacity:1" fill="#06b2ea" d="M 148.5,14.5 C 156.049,18.3896 163.049,23.0563 169.5,28.5C 167.109,29.4076 164.776,29.5743 162.5,29C 163.833,30.8402 163.666,31.3402 162,30.5C 159.944,31.5832 158.611,33.2499 158,35.5C 156.334,34.6598 156.167,35.1598 157.5,37C 155.381,39.3927 152.715,40.7261 149.5,41C 150.308,41.3076 150.975,41.8076 151.5,42.5C 149.598,44.976 147.598,47.3093 145.5,49.5C 134.561,53.4346 125.227,59.7679 117.5,68.5C 114.234,65.9551 110.568,65.1218 106.5,66C 109.934,68.7033 111.934,72.2033 112.5,76.5C 112.5,81.8333 112.5,87.1667 112.5,92.5C 111.145,89.5698 110.645,86.5698 111,83.5C 109.175,85.0076 107.175,87.0076 105,89.5C 104.282,88.5494 103.449,88.3828 102.5,89C 102.5,90.3333 102.5,91.6667 102.5,93C 100.874,92.8047 99.2072,92.8047 97.5,93C 99.8776,93.9745 99.5443,94.6411 96.5,95C 97.1667,95.3333 97.8333,95.6667 98.5,96C 94.3682,96.6911 91.8682,99.1911 91,103.5C 90.5004,110.492 90.3337,117.492 90.5,124.5C 90.8016,127.059 90.4682,129.393 89.5,131.5C 89.5,120.5 89.5,109.5 89.5,98.5C 90.3288,91.3448 90.8288,84.0115 91,76.5C 91.2735,74.6711 92.1068,73.1711 93.5,72C 93.1667,71.6667 92.8333,71.3333 92.5,71C 93.549,70.5078 94.549,70.6744 95.5,71.5C 97.0159,68.82 99.0159,66.6534 101.5,65C 100.549,64.2825 100.383,63.4491 101,62.5C 102.113,63.7111 103.28,63.7111 104.5,62.5C 105.693,60.4733 107.36,58.9733 109.5,58C 108.167,56.1598 108.334,55.6598 110,56.5C 110.442,54.3215 111.442,53.6548 113,54.5C 116.262,51.9833 118.429,49.15 119.5,46C 120.833,45.3333 122.167,44.6667 123.5,44C 122.289,43.1072 122.289,42.2739 123.5,41.5C 124.086,41.7093 124.586,42.0426 125,42.5C 126.5,41 128,39.5 129.5,38C 128.66,36.3335 129.16,36.1669 131,37.5C 133.385,32.5214 137.219,28.0214 142.5,24C 141.66,22.3335 142.16,22.1669 144,23.5C 145.758,22.5305 146.258,21.3639 145.5,20C 146.448,19.5172 147.448,19.3505 148.5,19.5C 148.5,17.8333 148.5,16.1667 148.5,14.5 Z"/></g>
<g><path style="opacity:1" fill="#11b9ed" d="M 169.5,28.5 C 172.5,30.8333 175.167,33.5 177.5,36.5C 174.215,37.0892 173.882,38.2559 176.5,40C 171.792,41.3782 168.292,44.2115 166,48.5C 165.667,48.1667 165.333,47.8333 165,47.5C 157.138,55.5516 149.138,64.2182 141,73.5C 140.366,79.1342 139.866,79.4675 139.5,74.5C 141.673,63.1627 147.34,53.9961 156.5,47C 152.795,47.3413 149.128,48.1746 145.5,49.5C 147.598,47.3093 149.598,44.976 151.5,42.5C 150.975,41.8076 150.308,41.3076 149.5,41C 152.715,40.7261 155.381,39.3927 157.5,37C 156.167,35.1598 156.334,34.6598 158,35.5C 158.611,33.2499 159.944,31.5832 162,30.5C 163.666,31.3402 163.833,30.8402 162.5,29C 164.776,29.5743 167.109,29.4076 169.5,28.5 Z"/></g>
<g><path style="opacity:1" fill="#02beef" d="M 177.5,36.5 C 181.238,39.9103 184.238,43.9103 186.5,48.5C 182.269,53.1585 177.935,57.6585 173.5,62C 172.24,63.113 171.073,63.2797 170,62.5C 169.333,64.5 168,65.8333 166,66.5C 165.357,69.7201 163.524,71.8867 160.5,73C 160.833,73.3333 161.167,73.6667 161.5,74C 157.723,77.4993 153.889,80.9993 150,84.5C 149.667,84.1667 149.333,83.8333 149,83.5C 145.693,88.4964 142.193,93.1631 138.5,97.5C 138.175,89.6484 138.508,81.9818 139.5,74.5C 139.866,79.4675 140.366,79.1342 141,73.5C 149.138,64.2182 157.138,55.5516 165,47.5C 165.333,47.8333 165.667,48.1667 166,48.5C 168.292,44.2115 171.792,41.3782 176.5,40C 173.882,38.2559 174.215,37.0892 177.5,36.5 Z"/></g>
<g><path style="opacity:1" fill="#fdfefe" d="M 89.5,41.5 C 90.2389,41.369 90.9056,41.5357 91.5,42C 86.5716,45.3727 83.2383,49.8727 81.5,55.5C 80.3592,58.6399 80.1925,61.9733 81,65.5C 82.0255,68.6928 84.1922,70.0262 87.5,69.5C 88.1667,90.5 88.8333,111.5 89.5,132.5C 93.4198,137.665 98.4198,138.832 104.5,136C 107.418,134.291 110.252,132.458 113,130.5C 113.829,112.329 113.662,94.3286 112.5,76.5C 111.934,72.2033 109.934,68.7033 106.5,66C 110.568,65.1218 114.234,65.9551 117.5,68.5C 125.227,59.7679 134.561,53.4346 145.5,49.5C 149.128,48.1746 152.795,47.3413 156.5,47C 147.34,53.9961 141.673,63.1627 139.5,74.5C 138.508,81.9818 138.175,89.6484 138.5,97.5C 138.5,101.833 138.5,106.167 138.5,110.5C 138.334,117.508 138.5,124.508 139,131.5C 144.017,134.263 148.517,133.596 152.5,129.5C 156.235,127.275 159.568,124.442 162.5,121C 163.332,120.312 163.998,120.479 164.5,121.5C 162.764,126.634 160.764,131.634 158.5,136.5C 152.125,145.209 144.458,152.542 135.5,158.5C 132.747,160.994 130.08,160.994 127.5,158.5C 125.182,155.682 122.682,153.015 120,150.5C 114.21,155.288 108.71,160.454 103.5,166C 99.8484,166.499 96.1817,166.665 92.5,166.5C 86.3196,165.078 80.3196,163.078 74.5,160.5C 68.332,156.905 62.6654,152.572 57.5,147.5C 56.5423,146.038 55.3756,144.705 54,143.5C 53.3333,142.833 53.3333,142.167 54,141.5C 56.4009,142.602 58.9009,142.769 61.5,142C 62.8228,141.184 63.4894,140.017 63.5,138.5C 63.5,131.167 63.5,123.833 63.5,116.5C 63.6665,106.161 63.4998,95.828 63,85.5C 59.26,80.9487 55.0933,80.4487 50.5,84C 46.0584,88.7168 43.0584,94.2168 41.5,100.5C 40.5318,98.3926 40.1984,96.0593 40.5,93.5C 46.548,66.4526 62.8813,49.1192 89.5,41.5 Z"/></g>
<g><path style="opacity:1" fill="#01c5f2" d="M 186.5,48.5 C 190.665,54.3486 193.998,60.6819 196.5,67.5C 196.631,68.2389 196.464,68.9056 196,69.5C 193.943,65.9621 191.609,65.9621 189,69.5C 188.667,68.8333 188.333,68.1667 188,67.5C 189.137,71.9364 187.804,72.6031 184,69.5C 183.689,70.7425 184.189,71.7425 185.5,72.5C 184.624,73.2508 183.624,73.7508 182.5,74C 183.308,74.3076 183.975,74.8076 184.5,75.5C 181.662,77.9637 178.662,79.4637 175.5,80C 176.357,80.6891 177.023,81.5224 177.5,82.5C 175.922,83.2978 174.256,83.7978 172.5,84C 172.833,84.3333 173.167,84.6667 173.5,85C 171.545,85.9533 169.878,87.2866 168.5,89C 168.4,91.3551 167.233,93.5217 165,95.5C 164.667,95.1667 164.333,94.8333 164,94.5C 161.948,97.5997 159.115,100.766 155.5,104C 152.595,105.037 149.761,106.204 147,107.5C 146.667,107.167 146.333,106.833 146,106.5C 147.404,110.687 145.904,113.354 141.5,114.5C 140.692,116.423 140.192,118.423 140,120.5C 139.821,116.975 139.321,113.641 138.5,110.5C 138.5,106.167 138.5,101.833 138.5,97.5C 142.193,93.1631 145.693,88.4964 149,83.5C 149.333,83.8333 149.667,84.1667 150,84.5C 153.889,80.9993 157.723,77.4993 161.5,74C 161.167,73.6667 160.833,73.3333 160.5,73C 163.524,71.8867 165.357,69.7201 166,66.5C 168,65.8333 169.333,64.5 170,62.5C 171.073,63.2797 172.24,63.113 173.5,62C 177.935,57.6585 182.269,53.1585 186.5,48.5 Z"/></g>
<g><path style="opacity:1" fill="#08ccf4" d="M 196.5,67.5 C 198.61,71.5021 199.943,75.8354 200.5,80.5C 200.302,85.5639 199.635,85.3973 198.5,80C 198.15,78.7425 197.483,78.4092 196.5,79C 196.833,79.3333 197.167,79.6667 197.5,80C 195.368,80.918 194.701,82.2513 195.5,84C 193.5,84.6667 192.167,86 191.5,88C 190.451,88.4922 189.451,88.3256 188.5,87.5C 186.96,91.2135 184.793,94.5468 182,97.5C 181.667,97.1667 181.333,96.8333 181,96.5C 179.748,98.0009 178.748,99.6675 178,101.5C 177.667,101.167 177.333,100.833 177,100.5C 174.141,102.724 172.141,105.058 171,107.5C 170.667,107.167 170.333,106.833 170,106.5C 169.682,108.061 168.849,109.228 167.5,110C 167.833,110.333 168.167,110.667 168.5,111C 166.094,112.622 164.261,114.789 163,117.5C 162.667,117.167 162.333,116.833 162,116.5C 161.641,119.544 160.974,119.878 160,117.5C 158.359,118.611 157.025,120.611 156,123.5C 155.667,122.833 155.333,122.167 155,121.5C 154.725,124.412 153.891,127.079 152.5,129.5C 148.517,133.596 144.017,134.263 139,131.5C 138.5,124.508 138.334,117.508 138.5,110.5C 139.321,113.641 139.821,116.975 140,120.5C 140.192,118.423 140.692,116.423 141.5,114.5C 145.904,113.354 147.404,110.687 146,106.5C 146.333,106.833 146.667,107.167 147,107.5C 149.761,106.204 152.595,105.037 155.5,104C 159.115,100.766 161.948,97.5997 164,94.5C 164.333,94.8333 164.667,95.1667 165,95.5C 167.233,93.5217 168.4,91.3551 168.5,89C 169.878,87.2866 171.545,85.9533 173.5,85C 173.167,84.6667 172.833,84.3333 172.5,84C 174.256,83.7978 175.922,83.2978 177.5,82.5C 177.023,81.5224 176.357,80.6891 175.5,80C 178.662,79.4637 181.662,77.9637 184.5,75.5C 183.975,74.8076 183.308,74.3076 182.5,74C 183.624,73.7508 184.624,73.2508 185.5,72.5C 184.189,71.7425 183.689,70.7425 184,69.5C 187.804,72.6031 189.137,71.9364 188,67.5C 188.333,68.1667 188.667,68.8333 189,69.5C 191.609,65.9621 193.943,65.9621 196,69.5C 196.464,68.9056 196.631,68.2389 196.5,67.5 Z"/></g>
<g><path style="opacity:1" fill="#0ad1f7" d="M 200.5,80.5 C 201.795,84.2671 202.461,88.2671 202.5,92.5C 202.5,95.1667 202.5,97.8333 202.5,100.5C 200.581,97.9165 198.914,98.2498 197.5,101.5C 196.914,101.291 196.414,100.957 196,100.5C 194.57,102.976 192.737,105.142 190.5,107C 190.833,107.333 191.167,107.667 191.5,108C 190.377,109.044 189.044,109.71 187.5,110C 188.28,111.073 188.113,112.24 187,113.5C 184.147,114.875 181.481,116.542 179,118.5C 178.667,119.833 178.333,121.167 178,122.5C 177.259,121.359 176.425,121.359 175.5,122.5C 172.506,125.714 169.673,129.047 167,132.5C 164.871,131.137 164.371,131.471 165.5,133.5C 162.533,134.415 160.7,136.415 160,139.5C 159.487,138.473 158.987,137.473 158.5,136.5C 160.764,131.634 162.764,126.634 164.5,121.5C 163.998,120.479 163.332,120.312 162.5,121C 159.568,124.442 156.235,127.275 152.5,129.5C 153.891,127.079 154.725,124.412 155,121.5C 155.333,122.167 155.667,122.833 156,123.5C 157.025,120.611 158.359,118.611 160,117.5C 160.974,119.878 161.641,119.544 162,116.5C 162.333,116.833 162.667,117.167 163,117.5C 164.261,114.789 166.094,112.622 168.5,111C 168.167,110.667 167.833,110.333 167.5,110C 168.849,109.228 169.682,108.061 170,106.5C 170.333,106.833 170.667,107.167 171,107.5C 172.141,105.058 174.141,102.724 177,100.5C 177.333,100.833 177.667,101.167 178,101.5C 178.748,99.6675 179.748,98.0009 181,96.5C 181.333,96.8333 181.667,97.1667 182,97.5C 184.793,94.5468 186.96,91.2135 188.5,87.5C 189.451,88.3256 190.451,88.4922 191.5,88C 192.167,86 193.5,84.6667 195.5,84C 194.701,82.2513 195.368,80.918 197.5,80C 197.167,79.6667 196.833,79.3333 196.5,79C 197.483,78.4092 198.15,78.7425 198.5,80C 199.635,85.3973 200.302,85.5639 200.5,80.5 Z"/></g>
<g><path style="opacity:1" fill="#00b8ed" d="M 112.5,92.5 C 112.666,98.8421 112.5,105.175 112,111.5C 111.667,109.5 111.333,107.5 111,105.5C 109.333,105.5 107.667,105.5 106,105.5C 105.383,106.449 105.549,107.282 106.5,108C 104.329,110.949 101.663,112.282 98.5,112C 98.8333,112.333 99.1667,112.667 99.5,113C 97.5,114.324 95.8334,115.991 94.5,118C 96.8776,118.974 96.5443,119.641 93.5,120C 92.6006,121.652 91.6006,123.152 90.5,124.5C 90.3337,117.492 90.5004,110.492 91,103.5C 91.8682,99.1911 94.3682,96.6911 98.5,96C 97.8333,95.6667 97.1667,95.3333 96.5,95C 99.5443,94.6411 99.8776,93.9745 97.5,93C 99.2072,92.8047 100.874,92.8047 102.5,93C 102.5,91.6667 102.5,90.3333 102.5,89C 103.449,88.3828 104.282,88.5494 105,89.5C 107.175,87.0076 109.175,85.0076 111,83.5C 110.645,86.5698 111.145,89.5698 112.5,92.5 Z"/></g>
<g><path style="opacity:1" fill="#00a5e5" d="M 39.5,98.5 C 39.5,99.5 39.5,100.5 39.5,101.5C 38.5815,103.82 37.2482,105.987 35.5,108C 36.4506,108.718 36.6172,109.551 36,110.5C 35.3333,111.833 34.6667,111.833 34,110.5C 32.4571,112.378 30.6238,113.878 28.5,115C 29.2797,116.073 29.113,117.24 28,118.5C 27.6667,117.833 27.3333,117.167 27,116.5C 24.9376,118.901 23.2709,121.567 22,124.5C 20.4207,126.041 18.5873,127.208 16.5,128C 15.0241,131.633 12.6907,134.467 9.5,136.5C 7.38966,131.727 6.05633,126.727 5.5,121.5C 6.97457,119.59 8.97457,118.424 11.5,118C 13.1247,117.147 13.4581,116.147 12.5,115C 16.7534,112.455 19.5867,109.288 21,105.5C 21.3333,105.833 21.6667,106.167 22,106.5C 23,105.167 24,103.833 25,102.5C 25.3333,103.167 25.6667,103.833 26,104.5C 28.3692,103.073 28.8692,101.239 27.5,99C 32.5514,97.5913 35.7181,94.758 37,90.5C 37.9428,93.2507 38.7761,95.9174 39.5,98.5 Z"/></g>
<g><path style="opacity:1" fill="#03abe7" d="M 63.5,116.5 C 62.6773,113.023 62.1773,109.356 62,105.5C 61.6667,106.167 61.3333,106.833 61,107.5C 58.8707,106.137 58.3707,106.471 59.5,108.5C 56.1897,110.482 53.1897,112.815 50.5,115.5C 48.7988,116.802 47.6322,118.469 47,120.5C 46.6667,120.167 46.3333,119.833 46,119.5C 43.1039,122.059 41.1039,124.725 40,127.5C 37.8637,126.97 36.0304,127.803 34.5,130C 34.8333,130.333 35.1667,130.667 35.5,131C 31.9959,133.645 29.1626,136.812 27,140.5C 25.8869,139.289 24.7202,139.289 23.5,140.5C 23.7493,143.592 22.0827,145.259 18.5,145.5C 18.719,146.675 18.3857,147.675 17.5,148.5C 16.3777,147.37 15.0443,146.703 13.5,146.5C 11.6092,143.386 10.2759,140.052 9.5,136.5C 12.6907,134.467 15.0241,131.633 16.5,128C 18.5873,127.208 20.4207,126.041 22,124.5C 23.2709,121.567 24.9376,118.901 27,116.5C 27.3333,117.167 27.6667,117.833 28,118.5C 29.113,117.24 29.2797,116.073 28.5,115C 30.6238,113.878 32.4571,112.378 34,110.5C 34.6667,111.833 35.3333,111.833 36,110.5C 36.6172,109.551 36.4506,108.718 35.5,108C 37.2482,105.987 38.5815,103.82 39.5,101.5C 40.3274,102.439 40.9941,102.105 41.5,100.5C 43.0584,94.2168 46.0584,88.7168 50.5,84C 55.0933,80.4487 59.26,80.9487 63,85.5C 63.4998,95.828 63.6665,106.161 63.5,116.5 Z"/></g>
<g><path style="opacity:1" fill="#6ed6f4" d="M 87.5,69.5 C 87.56,68.9569 87.8933,68.6236 88.5,68.5C 89.4985,78.4778 89.8319,88.4778 89.5,98.5C 89.5,109.5 89.5,120.5 89.5,131.5C 89.5,131.833 89.5,132.167 89.5,132.5C 88.8333,111.5 88.1667,90.5 87.5,69.5 Z"/></g>
<g><path style="opacity:1" fill="#77d1f1" d="M 40.5,93.5 C 40.1984,96.0593 40.5318,98.3926 41.5,100.5C 40.9941,102.105 40.3274,102.439 39.5,101.5C 39.5,100.5 39.5,99.5 39.5,98.5C 39.2155,96.5853 39.5489,94.9187 40.5,93.5 Z"/></g>
<g><path style="opacity:1" fill="#1ec1f0" d="M 112.5,76.5 C 113.662,94.3286 113.829,112.329 113,130.5C 110.252,132.458 107.418,134.291 104.5,136C 98.4198,138.832 93.4198,137.665 89.5,132.5C 89.5,132.167 89.5,131.833 89.5,131.5C 90.4682,129.393 90.8016,127.059 90.5,124.5C 91.6006,123.152 92.6006,121.652 93.5,120C 96.5443,119.641 96.8776,118.974 94.5,118C 95.8334,115.991 97.5,114.324 99.5,113C 99.1667,112.667 98.8333,112.333 98.5,112C 101.663,112.282 104.329,110.949 106.5,108C 105.549,107.282 105.383,106.449 106,105.5C 107.667,105.5 109.333,105.5 111,105.5C 111.333,107.5 111.667,109.5 112,111.5C 112.5,105.175 112.666,98.8421 112.5,92.5C 112.5,87.1667 112.5,81.8333 112.5,76.5 Z"/></g>
<g><path style="opacity:1" fill="#01b1ea" d="M 63.5,116.5 C 63.5,123.833 63.5,131.167 63.5,138.5C 62.6829,136.031 62.1829,133.365 62,130.5C 59.9635,132.467 58.1301,134.634 56.5,137C 55.552,137.483 54.552,137.649 53.5,137.5C 53.6399,139.124 52.9733,140.29 51.5,141C 52.6734,144.11 52.1734,144.277 50,141.5C 48.8118,142.563 48.3118,143.897 48.5,145.5C 47.448,145.351 46.448,145.517 45.5,146C 45.8333,146.333 46.1667,146.667 46.5,147C 45.1667,147.667 43.8333,148.333 42.5,149C 43.2797,150.073 43.113,151.24 42,152.5C 41.6667,151.833 41.3333,151.167 41,150.5C 40.0589,152.772 38.7255,154.772 37,156.5C 35.3335,155.66 35.1669,156.16 36.5,158C 34.4299,158.948 32.9299,160.448 32,162.5C 30.9887,161.663 29.8221,161.33 28.5,161.5C 28.8799,163.698 28.2132,165.365 26.5,166.5C 21.1738,160.524 16.8405,153.857 13.5,146.5C 15.0443,146.703 16.3777,147.37 17.5,148.5C 18.3857,147.675 18.719,146.675 18.5,145.5C 22.0827,145.259 23.7493,143.592 23.5,140.5C 24.7202,139.289 25.8869,139.289 27,140.5C 29.1626,136.812 31.9959,133.645 35.5,131C 35.1667,130.667 34.8333,130.333 34.5,130C 36.0304,127.803 37.8637,126.97 40,127.5C 41.1039,124.725 43.1039,122.059 46,119.5C 46.3333,119.833 46.6667,120.167 47,120.5C 47.6322,118.469 48.7988,116.802 50.5,115.5C 53.1897,112.815 56.1897,110.482 59.5,108.5C 58.3707,106.471 58.8707,106.137 61,107.5C 61.3333,106.833 61.6667,106.167 62,105.5C 62.1773,109.356 62.6773,113.023 63.5,116.5 Z"/></g>
<g><path style="opacity:1" fill="#0cdefb" d="M 201.5,121.5 C 191.805,165.195 165.139,191.861 121.5,201.5C 120.909,200.849 120.243,200.182 119.5,199.5C 120.315,197.724 121.482,197.057 123,197.5C 123.465,196.069 124.299,194.903 125.5,194C 125.167,193.667 124.833,193.333 124.5,193C 127.72,191.734 130.053,189.567 131.5,186.5C 132.192,187.025 132.692,187.692 133,188.5C 133.249,185.823 134.249,183.49 136,181.5C 136.333,181.833 136.667,182.167 137,182.5C 137.833,181 139,179.833 140.5,179C 140.167,178.667 139.833,178.333 139.5,178C 141.531,177.368 143.198,176.201 144.5,174.5C 143.371,172.471 143.871,172.137 146,173.5C 149.066,169.709 152.733,165.709 157,161.5C 157.333,161.833 157.667,162.167 158,162.5C 159.113,161.24 159.28,160.073 158.5,159C 160.723,158.348 161.89,156.848 162,154.5C 162.333,155.167 162.667,155.833 163,156.5C 164.955,154.089 166.789,151.589 168.5,149C 170.346,146.908 172.679,145.574 175.5,145C 174.786,143.657 175.12,142.324 176.5,141C 178.167,140.667 179.833,140.333 181.5,140C 180.833,139.667 180.167,139.333 179.5,139C 180.652,136.851 182.152,135.018 184,133.5C 184.333,133.833 184.667,134.167 185,134.5C 185.483,133.552 185.649,132.552 185.5,131.5C 188.14,131.046 190.473,129.879 192.5,128C 192.167,127.667 191.833,127.333 191.5,127C 192.984,125.426 194.651,124.093 196.5,123C 195.72,121.927 195.887,120.76 197,119.5C 198.147,120.458 199.147,120.125 200,118.5C 200.232,119.737 200.732,120.737 201.5,121.5 Z"/></g>
<g><path style="opacity:1" fill="#0ab8ed" d="M 63.5,138.5 C 63.4894,140.017 62.8228,141.184 61.5,142C 58.9009,142.769 56.4009,142.602 54,141.5C 53.3333,142.167 53.3333,142.833 54,143.5C 55.3756,144.705 56.5423,146.038 57.5,147.5C 57.7135,149.144 57.3802,150.644 56.5,152C 57.5,152.333 58.5,152.667 59.5,153C 58.2125,154.41 57.0458,155.91 56,157.5C 55.0862,156.346 54.2529,156.513 53.5,158C 54.1667,158.333 54.8333,158.667 55.5,159C 54.1509,159.772 53.3176,160.939 53,162.5C 52.6667,161.833 52.3333,161.167 52,160.5C 49.3206,165.555 45.1539,169.055 39.5,171C 40.1667,171.667 40.8333,172.333 41.5,173C 39.913,173.862 38.2464,174.529 36.5,175C 37.5,176 38.5,177 39.5,178C 38.9056,178.464 38.2389,178.631 37.5,178.5C 33.1245,175.126 29.4578,171.126 26.5,166.5C 28.2132,165.365 28.8799,163.698 28.5,161.5C 29.8221,161.33 30.9887,161.663 32,162.5C 32.9299,160.448 34.4299,158.948 36.5,158C 35.1669,156.16 35.3335,155.66 37,156.5C 38.7255,154.772 40.0589,152.772 41,150.5C 41.3333,151.167 41.6667,151.833 42,152.5C 43.113,151.24 43.2797,150.073 42.5,149C 43.8333,148.333 45.1667,147.667 46.5,147C 46.1667,146.667 45.8333,146.333 45.5,146C 46.448,145.517 47.448,145.351 48.5,145.5C 48.3118,143.897 48.8118,142.563 50,141.5C 52.1734,144.277 52.6734,144.11 51.5,141C 52.9733,140.29 53.6399,139.124 53.5,137.5C 54.552,137.649 55.552,137.483 56.5,137C 58.1301,134.634 59.9635,132.467 62,130.5C 62.1829,133.365 62.6829,136.031 63.5,138.5 Z"/></g>
<g><path style="opacity:1" fill="#0eccf5" d="M 127.5,158.5 C 127.44,159.043 127.107,159.376 126.5,159.5C 125.084,157.861 123.417,157.027 121.5,157C 118.178,159.666 114.845,162.333 111.5,165C 111.833,165.333 112.167,165.667 112.5,166C 110.963,167.11 110.297,168.61 110.5,170.5C 108.799,170.966 107.299,170.966 106,170.5C 104.887,171.76 104.72,172.927 105.5,174C 104.24,175.113 103.073,175.28 102,174.5C 101.833,177.333 100.333,178.833 97.5,179C 98.1667,179.333 98.8333,179.667 99.5,180C 96.8853,180.855 94.552,182.188 92.5,184C 93.4581,185.147 93.1247,186.147 91.5,187C 90.062,187.219 88.7287,187.719 87.5,188.5C 87.7093,189.086 88.0426,189.586 88.5,190C 87,190.833 85.8333,192 85,193.5C 84.6667,193.167 84.3333,192.833 84,192.5C 83.2078,194.587 82.0412,196.421 80.5,198C 81.6226,199.044 82.9559,199.71 84.5,200C 83.2068,200.49 81.8734,200.657 80.5,200.5C 75.8354,199.943 71.5021,198.61 67.5,196.5C 68.2389,196.631 68.9056,196.464 69.5,196C 67.6675,195.252 66.0009,194.252 64.5,193C 65.4491,192.383 66.2825,192.549 67,193.5C 67.5,192.333 68.3333,191.5 69.5,191C 68.7236,189.23 68.8903,187.397 70,185.5C 70.3333,186.833 70.6667,188.167 71,189.5C 71.3119,185.004 73.4786,183.004 77.5,183.5C 78.2432,182.092 79.0766,180.759 80,179.5C 80.6543,180.696 81.1543,180.696 81.5,179.5C 77.5189,178.506 77.5189,177.506 81.5,176.5C 84.2614,177.35 84.9281,176.35 83.5,173.5C 85.3686,172.376 87.3686,171.543 89.5,171C 85.8149,170.086 86.1482,169.419 90.5,169C 89.8333,168.667 89.1667,168.333 88.5,168C 90.0581,167.79 91.3915,167.29 92.5,166.5C 96.1817,166.665 99.8484,166.499 103.5,166C 108.71,160.454 114.21,155.288 120,150.5C 122.682,153.015 125.182,155.682 127.5,158.5 Z"/></g>
<g><path style="opacity:1" fill="#0abfef" d="M 57.5,147.5 C 62.6654,152.572 68.332,156.905 74.5,160.5C 70.7457,162.748 67.4124,165.581 64.5,169C 65.1667,169.333 65.8333,169.667 66.5,170C 60.3129,172.304 55.6462,176.304 52.5,182C 50.913,182.862 49.2464,183.529 47.5,184C 49.4552,184.953 51.1218,186.287 52.5,188C 52.2716,188.399 51.9382,188.565 51.5,188.5C 46.4434,185.645 41.7767,182.312 37.5,178.5C 38.2389,178.631 38.9056,178.464 39.5,178C 38.5,177 37.5,176 36.5,175C 38.2464,174.529 39.913,173.862 41.5,173C 40.8333,172.333 40.1667,171.667 39.5,171C 45.1539,169.055 49.3206,165.555 52,160.5C 52.3333,161.167 52.6667,161.833 53,162.5C 53.3176,160.939 54.1509,159.772 55.5,159C 54.8333,158.667 54.1667,158.333 53.5,158C 54.2529,156.513 55.0862,156.346 56,157.5C 57.0458,155.91 58.2125,154.41 59.5,153C 58.5,152.667 57.5,152.333 56.5,152C 57.3802,150.644 57.7135,149.144 57.5,147.5 Z"/></g>
<g><path style="opacity:1" fill="#0ad8f9" d="M 202.5,92.5 C 203.823,102.074 203.49,111.74 201.5,121.5C 200.732,120.737 200.232,119.737 200,118.5C 199.147,120.125 198.147,120.458 197,119.5C 195.887,120.76 195.72,121.927 196.5,123C 194.651,124.093 192.984,125.426 191.5,127C 191.833,127.333 192.167,127.667 192.5,128C 190.473,129.879 188.14,131.046 185.5,131.5C 185.649,132.552 185.483,133.552 185,134.5C 184.667,134.167 184.333,133.833 184,133.5C 182.152,135.018 180.652,136.851 179.5,139C 180.167,139.333 180.833,139.667 181.5,140C 179.833,140.333 178.167,140.667 176.5,141C 175.12,142.324 174.786,143.657 175.5,145C 172.679,145.574 170.346,146.908 168.5,149C 166.789,151.589 164.955,154.089 163,156.5C 162.667,155.833 162.333,155.167 162,154.5C 161.89,156.848 160.723,158.348 158.5,159C 159.28,160.073 159.113,161.24 158,162.5C 157.667,162.167 157.333,161.833 157,161.5C 152.733,165.709 149.066,169.709 146,173.5C 143.871,172.137 143.371,172.471 144.5,174.5C 143.198,176.201 141.531,177.368 139.5,178C 139.833,178.333 140.167,178.667 140.5,179C 139,179.833 137.833,181 137,182.5C 136.667,182.167 136.333,181.833 136,181.5C 134.249,183.49 133.249,185.823 133,188.5C 132.692,187.692 132.192,187.025 131.5,186.5C 130.053,189.567 127.72,191.734 124.5,193C 124.833,193.333 125.167,193.667 125.5,194C 124.299,194.903 123.465,196.069 123,197.5C 121.482,197.057 120.315,197.724 119.5,199.5C 120.243,200.182 120.909,200.849 121.5,201.5C 111.76,203.585 102.093,203.918 92.5,202.5C 95.8333,202.5 99.1667,202.5 102.5,202.5C 105.572,202.817 108.572,202.484 111.5,201.5C 110.376,200.086 109.376,198.586 108.5,197C 107.167,197 105.833,197 104.5,197C 105.891,195.98 107.391,195.147 109,194.5C 112.275,193.956 115.108,193.956 117.5,194.5C 117.833,193.167 118.167,191.833 118.5,190.5C 120.737,189.868 122.403,188.535 123.5,186.5C 123.023,185.522 122.357,184.689 121.5,184C 123.486,184.794 125.319,184.294 127,182.5C 126.293,180.157 126.626,177.824 128,175.5C 128.49,176.793 128.657,178.127 128.5,179.5C 131.205,179.62 131.872,178.62 130.5,176.5C 131.128,174.742 132.128,173.242 133.5,172C 132.137,169.871 132.471,169.371 134.5,170.5C 136.671,168.159 138.671,165.659 140.5,163C 141.449,162.383 142.282,162.549 143,163.5C 143.317,161.699 143.984,161.366 145,162.5C 145.711,160.633 145.211,159.133 143.5,158C 145.081,157.293 146.581,156.46 148,155.5C 150.273,158.604 152.44,158.771 154.5,156C 154.384,154.732 154.051,153.398 153.5,152C 154.865,150.318 156.365,150.151 158,151.5C 160.211,148.952 162.711,146.786 165.5,145C 164.289,143.887 164.289,142.72 165.5,141.5C 164.624,140.749 163.624,140.249 162.5,140C 163.833,139.667 165.167,139.333 166.5,139C 166.167,138.667 165.833,138.333 165.5,138C 168.544,137.641 168.878,136.974 166.5,136C 167.253,134.513 168.086,134.346 169,135.5C 169.317,133.699 169.984,133.366 171,134.5C 172.171,133.107 173.671,132.273 175.5,132C 174.007,130.844 174.174,130.01 176,129.5C 178.078,130.52 179.745,129.853 181,127.5C 182.297,128.784 183.464,128.617 184.5,127C 183.833,126.667 183.167,126.333 182.5,126C 183.167,124.333 183.833,122.667 184.5,121C 183.833,120.333 183.167,119.667 182.5,119C 184.727,118.879 186.56,118.046 188,116.5C 189.557,117.205 190.723,116.539 191.5,114.5C 191.291,113.914 190.957,113.414 190.5,113C 192.959,112.276 193.959,110.943 193.5,109C 194.449,108.383 195.282,108.549 196,109.5C 197.311,106.865 198.978,104.531 201,102.5C 201.333,103.5 201.667,104.5 202,105.5C 202.494,103.866 202.66,102.199 202.5,100.5C 202.5,97.8333 202.5,95.1667 202.5,92.5 Z"/></g>
<g><path style="opacity:1" fill="#09d1f7" d="M 127.5,158.5 C 130.08,160.994 132.747,160.994 135.5,158.5C 138.211,160.847 137.544,162.347 133.5,163C 134.956,163.423 135.456,164.256 135,165.5C 133.057,165.041 131.724,166.041 131,168.5C 130.667,168.167 130.333,167.833 130,167.5C 128.274,170.778 126.108,172.945 123.5,174C 123.833,174.333 124.167,174.667 124.5,175C 122.266,176.603 119.933,178.103 117.5,179.5C 117.709,180.086 118.043,180.586 118.5,181C 117.354,181.645 116.354,182.478 115.5,183.5C 113.877,182.524 112.543,183.024 111.5,185C 113.569,185.324 113.902,186.158 112.5,187.5C 108.233,192.18 102.899,196.347 96.5,200C 98.5018,201.019 100.502,201.852 102.5,202.5C 99.1667,202.5 95.8333,202.5 92.5,202.5C 88.2095,202.802 84.2095,202.136 80.5,200.5C 81.8734,200.657 83.2068,200.49 84.5,200C 82.9559,199.71 81.6226,199.044 80.5,198C 82.0412,196.421 83.2078,194.587 84,192.5C 84.3333,192.833 84.6667,193.167 85,193.5C 85.8333,192 87,190.833 88.5,190C 88.0426,189.586 87.7093,189.086 87.5,188.5C 88.7287,187.719 90.062,187.219 91.5,187C 93.1247,186.147 93.4581,185.147 92.5,184C 94.552,182.188 96.8853,180.855 99.5,180C 98.8333,179.667 98.1667,179.333 97.5,179C 100.333,178.833 101.833,177.333 102,174.5C 103.073,175.28 104.24,175.113 105.5,174C 104.72,172.927 104.887,171.76 106,170.5C 107.299,170.966 108.799,170.966 110.5,170.5C 110.297,168.61 110.963,167.11 112.5,166C 112.167,165.667 111.833,165.333 111.5,165C 114.845,162.333 118.178,159.666 121.5,157C 123.417,157.027 125.084,157.861 126.5,159.5C 127.107,159.376 127.44,159.043 127.5,158.5 Z"/></g>
<g><path style="opacity:1" fill="#07c5f2" d="M 74.5,160.5 C 80.3196,163.078 86.3196,165.078 92.5,166.5C 91.3915,167.29 90.0581,167.79 88.5,168C 89.1667,168.333 89.8333,168.667 90.5,169C 86.1482,169.419 85.8149,170.086 89.5,171C 87.3686,171.543 85.3686,172.376 83.5,173.5C 84.9281,176.35 84.2614,177.35 81.5,176.5C 77.5189,177.506 77.5189,178.506 81.5,179.5C 81.1543,180.696 80.6543,180.696 80,179.5C 79.0766,180.759 78.2432,182.092 77.5,183.5C 73.4786,183.004 71.3119,185.004 71,189.5C 70.6667,188.167 70.3333,186.833 70,185.5C 68.8903,187.397 68.7236,189.23 69.5,191C 68.3333,191.5 67.5,192.333 67,193.5C 66.2825,192.549 65.4491,192.383 64.5,193C 66.0009,194.252 67.6675,195.252 69.5,196C 68.9056,196.464 68.2389,196.631 67.5,196.5C 61.6139,194.771 56.2806,192.105 51.5,188.5C 51.9382,188.565 52.2716,188.399 52.5,188C 51.1218,186.287 49.4552,184.953 47.5,184C 49.2464,183.529 50.913,182.862 52.5,182C 55.6462,176.304 60.3129,172.304 66.5,170C 65.8333,169.667 65.1667,169.333 64.5,169C 67.4124,165.581 70.7457,162.748 74.5,160.5 Z"/></g>
<g><path style="opacity:1" fill="#04d5f9" d="M 202.5,100.5 C 202.66,102.199 202.494,103.866 202,105.5C 201.667,104.5 201.333,103.5 201,102.5C 198.978,104.531 197.311,106.865 196,109.5C 195.282,108.549 194.449,108.383 193.5,109C 193.959,110.943 192.959,112.276 190.5,113C 190.957,113.414 191.291,113.914 191.5,114.5C 190.723,116.539 189.557,117.205 188,116.5C 186.56,118.046 184.727,118.879 182.5,119C 183.167,119.667 183.833,120.333 184.5,121C 183.833,122.667 183.167,124.333 182.5,126C 183.167,126.333 183.833,126.667 184.5,127C 183.464,128.617 182.297,128.784 181,127.5C 179.745,129.853 178.078,130.52 176,129.5C 174.174,130.01 174.007,130.844 175.5,132C 173.671,132.273 172.171,133.107 171,134.5C 169.984,133.366 169.317,133.699 169,135.5C 168.086,134.346 167.253,134.513 166.5,136C 168.878,136.974 168.544,137.641 165.5,138C 165.833,138.333 166.167,138.667 166.5,139C 165.167,139.333 163.833,139.667 162.5,140C 163.624,140.249 164.624,140.749 165.5,141.5C 164.289,142.72 164.289,143.887 165.5,145C 162.711,146.786 160.211,148.952 158,151.5C 156.365,150.151 154.865,150.318 153.5,152C 154.051,153.398 154.384,154.732 154.5,156C 152.44,158.771 150.273,158.604 148,155.5C 146.581,156.46 145.081,157.293 143.5,158C 145.211,159.133 145.711,160.633 145,162.5C 143.984,161.366 143.317,161.699 143,163.5C 142.282,162.549 141.449,162.383 140.5,163C 138.671,165.659 136.671,168.159 134.5,170.5C 132.471,169.371 132.137,169.871 133.5,172C 132.128,173.242 131.128,174.742 130.5,176.5C 131.872,178.62 131.205,179.62 128.5,179.5C 128.657,178.127 128.49,176.793 128,175.5C 126.626,177.824 126.293,180.157 127,182.5C 125.319,184.294 123.486,184.794 121.5,184C 122.357,184.689 123.023,185.522 123.5,186.5C 122.403,188.535 120.737,189.868 118.5,190.5C 118.167,191.833 117.833,193.167 117.5,194.5C 115.108,193.956 112.275,193.956 109,194.5C 107.391,195.147 105.891,195.98 104.5,197C 105.833,197 107.167,197 108.5,197C 109.376,198.586 110.376,200.086 111.5,201.5C 108.572,202.484 105.572,202.817 102.5,202.5C 100.502,201.852 98.5018,201.019 96.5,200C 102.899,196.347 108.233,192.18 112.5,187.5C 113.902,186.158 113.569,185.324 111.5,185C 112.543,183.024 113.877,182.524 115.5,183.5C 116.354,182.478 117.354,181.645 118.5,181C 118.043,180.586 117.709,180.086 117.5,179.5C 119.933,178.103 122.266,176.603 124.5,175C 124.167,174.667 123.833,174.333 123.5,174C 126.108,172.945 128.274,170.778 130,167.5C 130.333,167.833 130.667,168.167 131,168.5C 131.724,166.041 133.057,165.041 135,165.5C 135.456,164.256 134.956,163.423 133.5,163C 137.544,162.347 138.211,160.847 135.5,158.5C 144.458,152.542 152.125,145.209 158.5,136.5C 158.987,137.473 159.487,138.473 160,139.5C 160.7,136.415 162.533,134.415 165.5,133.5C 164.371,131.471 164.871,131.137 167,132.5C 169.673,129.047 172.506,125.714 175.5,122.5C 176.425,121.359 177.259,121.359 178,122.5C 178.333,121.167 178.667,119.833 179,118.5C 181.481,116.542 184.147,114.875 187,113.5C 188.113,112.24 188.28,111.073 187.5,110C 189.044,109.71 190.377,109.044 191.5,108C 191.167,107.667 190.833,107.333 190.5,107C 192.737,105.142 194.57,102.976 196,100.5C 196.414,100.957 196.914,101.291 197.5,101.5C 198.914,98.2498 200.581,97.9165 202.5,100.5 Z"/></g>
</svg>
